<?xml version="1.0" standalone="no"?>
<!DOCTYPE svg PUBLIC "-//W3C//DTD SVG 1.1//EN" "http://www.w3.org/Graphics/SVG/1.1/DTD/svg11.dtd" >
<svg xmlns="http://www.w3.org/2000/svg">
<metadata></metadata>
<defs>
<font id="transport_new_heavyregular" horiz-adv-x="1267" >
<font-face units-per-em="2048" ascent="1597" descent="-451" />
<missing-glyph horiz-adv-x="716" />
<glyph horiz-adv-x="2048" />
<glyph horiz-adv-x="2048" />
<glyph unicode="&#xd;" horiz-adv-x="2048" />
<glyph unicode=" "  horiz-adv-x="716" />
<glyph unicode="&#x09;" horiz-adv-x="716" />
<glyph unicode="&#xa0;" horiz-adv-x="716" />
<glyph unicode="!" horiz-adv-x="696" d="M143 1597h389l-81 -1185h-226zM156 147q0 76 53.5 130.5t128.5 54.5q76 0 130 -54t54 -131q0 -75 -54 -128.5t-130 -53.5q-75 0 -128.5 53.5t-53.5 128.5z" />
<glyph unicode="&#x22;" horiz-adv-x="897" d="M143 971v626h228v-626h-228zM524 971v626h230v-626h-230z" />
<glyph unicode="#" horiz-adv-x="1308" d="M41 442l25 207h223l39 297h-222l27 205h223l58 444h231l-59 -444h233l58 444h231l-57 -444h217l-27 -205h-219l-39 -297h221l-28 -207h-220l-57 -442h-229l55 442h-233l-56 -442h-231l57 442h-221zM520 649h234l39 297h-234z" />
<glyph unicode="$" horiz-adv-x="1531" d="M72 219l264 242q106 -102 199.5 -144.5t224.5 -42.5q40 0 84 9t87 28t71 54t28 81q-1 44 -24 78t-68.5 58t-98 40.5t-128.5 32.5q-551 124 -551 471q0 221 122.5 342t331.5 152v162h297v-158q141 -19 263 -74t200 -135l-237 -227q-66 61 -162 93t-201 32 q-61 1 -114.5 -13t-94 -52.5t-39.5 -96.5q0 -26 11 -47.5t35 -39t48.5 -30t65.5 -25.5t70 -20.5t78 -19.5q60 -14 110 -28.5t110 -37.5t107.5 -50t93.5 -65.5t76.5 -83.5t49 -104.5t18.5 -128.5q0 -108 -39 -196.5t-108 -148t-153.5 -97.5t-185.5 -56v-182h-295v172 q-308 28 -546 256z" />
<glyph unicode="%" horiz-adv-x="2025" d="M82 1126q0 86 15.5 165t50 151t86.5 124.5t129.5 83.5t173.5 31q128 0 223 -44.5t150 -123.5t81.5 -177.5t26.5 -217.5q0 -91 -15.5 -172.5t-51.5 -155.5t-89.5 -128t-134 -85.5t-180.5 -31.5q-103 0 -184.5 33t-133.5 88t-85.5 131t-47.5 157t-14 172zM340 1110 q0 -54 4 -96.5t17 -89t35 -76.5t61 -50t92 -20q211 0 211 332q0 58 -3.5 101.5t-17 91t-37 77.5t-65.5 50t-100 20q-47 0 -82.5 -22.5t-57 -57t-35 -81.5t-18 -90t-4.5 -89zM1008 483q0 86 15 165t50 151t86.5 124.5t129 83.5t173.5 31q127 0 222 -44.5t150.5 -123.5 t82.5 -177.5t27 -217.5q0 -91 -15.5 -172.5t-51.5 -155.5t-89.5 -128t-134 -85.5t-180.5 -31.5q-103 0 -184.5 33t-133.5 88t-85.5 131t-47.5 157t-14 172zM1266 467q0 -54 4 -96.5t17 -89t35 -76.5t61 -50t92 -20q211 0 211 330q0 59 -4 102.5t-17.5 91.5t-37 78t-65.5 50 t-100 20q-57 0 -98 -32.5t-61 -86.5t-28.5 -108t-8.5 -113z" />
<glyph unicode="&#x26;" horiz-adv-x="1470" d="M82 438q1 164 81 291.5t218 208.5q-96 152 -96 285q0 182 109 292.5t290 110.5q116 0 208.5 -38t151 -121.5t58.5 -200.5q0 -65 -25.5 -125t-72 -109.5t-93 -86.5t-106.5 -75l244 -342q59 81 59 183h293q0 -103 -49 -225t-119 -212q33 -27 80.5 -28t81.5 20l35 -260 q-78 -41 -181 -41q-70 0 -136.5 27.5t-111.5 77.5q-176 -103 -376 -103q-85 0 -164.5 19t-148.5 58.5t-120.5 95t-81 132t-28.5 166.5zM383 471q0 -96 76.5 -158.5t187.5 -64.5q91 0 189 61l-299 408q-80 -53 -117 -111t-37 -135zM578 1231q4 -60 79 -158q158 92 158 199 q0 48 -32.5 78t-88.5 30q-53 0 -85.5 -45.5t-30.5 -103.5z" />
<glyph unicode="'" horiz-adv-x="595" d="M184 975v622h228v-622h-228z" />
<glyph unicode="(" horiz-adv-x="811" d="M72 805q0 287 133.5 558.5t361.5 444.5l140 -159q-159 -159 -250.5 -387.5t-91.5 -456.5q0 -490 344 -860l-140 -162q-238 197 -367.5 458.5t-129.5 563.5z" />
<glyph unicode=")" horiz-adv-x="811" d="M102 -55q344 374 344 860q0 228 -91.5 456t-250.5 388l140 159q228 -173 361.5 -444.5t133.5 -558.5q0 -303 -130 -564t-369 -458z" />
<glyph unicode="*" horiz-adv-x="761" d="M61 1163l60 178l182 -69v203h174v-203l185 69l59 -178l-186 -65l114 -172l-147 -113l-109 176l-110 -176l-150 113l117 172z" />
<glyph unicode="+" horiz-adv-x="1259" d="M82 428v244h426v428h244v-428h426v-244h-426v-428h-244v428h-426z" />
<glyph unicode="," horiz-adv-x="512" d="M82 162q0 66 47 113t113 47q70 0 119 -58.5t49 -140.5q0 -43 -7 -74q-16 -78 -69 -139q-28 -32 -80.5 -61t-110.5 -44l-30 76q82 26 129 68q8 6 13.5 17t4.5 18q0 18 -18 18q-65 0 -112.5 47t-47.5 113z" />
<glyph unicode="-" horiz-adv-x="681" d="M61 537v272h517v-272h-517z" />
<glyph unicode="." horiz-adv-x="491" d="M82 127q0 67 48 115.5t116 48.5t116 -48.5t48 -115.5t-48 -115.5t-116 -48.5t-116 48.5t-48 115.5z" />
<glyph unicode="/" horiz-adv-x="856" d="M20 -358l570 1986l235 -67l-569 -1987z" />
<glyph unicode="0" horiz-adv-x="1546" d="M102 815q0 128 22.5 244.5t72.5 222t124 182t184.5 121.5t246.5 45q147 0 265 -42.5t197 -117t131.5 -180t75.5 -226.5t23 -261q0 -135 -23 -255.5t-74.5 -229t-128.5 -187t-192.5 -124.5t-257.5 -46q-147 0 -263 48t-190.5 128t-123.5 191.5t-69 231t-20 255.5zM440 791 q0 -57 2.5 -104t11 -102.5t23 -99t39.5 -85.5t59 -70t84.5 -45t112.5 -17q334 0 334 520q0 62 -2.5 110.5t-11 107t-23.5 102t-41.5 87t-63 71t-90 44.5t-120.5 17q-64 0 -115.5 -25t-84.5 -69.5t-56.5 -97t-35.5 -116t-17 -118t-5 -110.5z" />
<glyph unicode="1" horiz-adv-x="966" d="M123 1075v279q165 0 231 61q61 59 72 182h295v-1597h-332v1075h-266z" />
<glyph unicode="2" horiz-adv-x="1402" d="M102 981v37q-1 290 159 450t452 160q272 0 429.5 -143.5t157.5 -413.5q0 -78 -17.5 -151.5t-46.5 -134t-75 -120t-92.5 -106t-109.5 -95.5t-117 -85.5t-123 -79.5h573v-299h-1161v299q54 38 151 98.5t181.5 114t174 116t161.5 130.5t112 133q56 90 56 190q-1 116 -69 175 t-185 59q-149 1 -216.5 -90t-64.5 -244h-330z" />
<glyph unicode="3" horiz-adv-x="1437" d="M113 434l327 78q67 -246 310 -246q116 0 183.5 53t67.5 168q0 58 -29 99t-80.5 61t-112 26.5t-132.5 0.5v293q130 3 187 16q149 37 149 164q0 44 -16 78t-40.5 53t-59 31t-65.5 16t-65 4q-233 0 -295 -199l-319 78q72 210 229 316t391 106q251 0 411.5 -139.5 t160.5 -343.5q0 -51 -9.5 -98.5t-29 -92t-55 -79t-82.5 -52.5q92 -44 145 -135.5t51 -197.5q0 -276 -149 -402.5t-447 -126.5q-519 0 -626 471z" />
<glyph unicode="4" horiz-adv-x="1415" d="M61 270v305l666 1022h451v-1028h165v-299h-165v-270h-328v270h-789zM418 569h432v662z" />
<glyph unicode="5" horiz-adv-x="1370" d="M102 795l113 804l985 -2v-297h-694l-43 -262q114 92 291 92q127 0 226.5 -47t161.5 -129t94 -187.5t32 -227.5q0 -286 -159 -429t-452 -143q-196 0 -335.5 94t-206.5 277l309 106q29 -83 97.5 -130.5t152.5 -47.5q117 0 190.5 82.5t73.5 198.5q0 108 -74 192t-184 84 q-159 0 -240 -123z" />
<glyph unicode="6" horiz-adv-x="1406" d="M102 823q0 137 20.5 253.5t68.5 219t122 174t186.5 113t256.5 41.5q174 0 286.5 -69t192.5 -191l-281 -160q-28 49 -88.5 84t-120.5 35q-144 0 -226 -98.5t-85 -255.5q62 62 152.5 93.5t177.5 31.5q131 0 236 -43t170.5 -116.5t100 -167.5t34.5 -200q0 -285 -148 -442.5 t-428 -157.5q-105 0 -192 25.5t-151 70.5t-113.5 109t-81.5 137.5t-52 160.5t-28.5 173t-8.5 180zM465 537q0 -114 75.5 -194.5t182.5 -80.5q106 0 182 80.5t76 194.5t-76 194t-182 80q-107 0 -182.5 -80t-75.5 -194z" />
<glyph unicode="7" horiz-adv-x="1191" d="M37 1296v301h1118v-309l-532 -1288h-357l533 1296h-762z" />
<glyph unicode="8" horiz-adv-x="1398" d="M102 483q0 118 55.5 205.5t161.5 134.5q-86 59 -139 138.5t-53 173.5q0 116 49 211t130.5 155t183.5 92.5t212 32.5t211.5 -33.5t181.5 -95t127.5 -157t47.5 -210.5q0 -192 -187 -299q213 -114 213 -339q0 -168 -79.5 -288.5t-210.5 -178.5t-297 -58q-124 0 -232 32 t-192.5 94t-133.5 162.5t-49 227.5zM440 469q0 -87 78 -149t187 -62q110 0 188 61.5t78 149.5q0 86 -78 147.5t-188 61.5q-109 0 -187 -61.5t-78 -147.5zM473 1137q0 -78 67 -134.5t162 -56.5t163.5 56.5t68.5 134.5t-68.5 134t-163.5 56t-162 -56t-67 -134z" />
<glyph unicode="9" horiz-adv-x="1406" d="M102 1024q0 285 148 442.5t428 157.5q105 0 192 -25.5t151 -70.5t113.5 -109.5t81.5 -137.5t52 -160.5t28.5 -173.5t8.5 -181q0 -137 -20.5 -252.5t-68.5 -218.5t-122 -174t-187.5 -112.5t-257.5 -41.5q-90 0 -165.5 20t-132.5 57.5t-99 81t-80 101.5l279 160 q30 -49 90.5 -85t120.5 -36q144 0 226 100t85 257q-62 -62 -152.5 -93.5t-177.5 -31.5q-105 0 -194 28t-152.5 77t-107.5 115.5t-65.5 143.5t-21.5 162zM426 1055q0 -114 76 -193.5t182 -79.5q107 0 182.5 79.5t75.5 193.5t-75.5 194t-182.5 80q-106 0 -182 -80t-76 -194z " />
<glyph unicode=":" horiz-adv-x="491" d="M82 127q0 67 48 115.5t116 48.5t116 -48.5t48 -115.5t-48 -115.5t-116 -48.5t-116 48.5t-48 115.5zM82 741q0 67 48 115.5t116 48.5t116 -48.5t48 -115.5t-48 -115t-116 -48t-116 48t-48 115z" />
<glyph unicode=";" horiz-adv-x="491" d="M82 741q0 67 48 115.5t116 48.5t116 -48.5t48 -115.5t-48 -115t-116 -48t-116 48t-48 115zM84 162q0 66 47 113t113 47q70 0 118 -58.5t48 -140.5q0 -43 -7 -74q-10 -73 -67 -139q-28 -32 -80.5 -61t-110.5 -44l-32 76q84 26 131 68q18 18 18 35q0 18 -18 18 q-65 0 -112.5 47t-47.5 113z" />
<glyph unicode="&#x3c;" horiz-adv-x="1429" d="M82 469v193l1266 505v-274l-869 -328l869 -327v-273z" />
<glyph unicode="=" horiz-adv-x="1239" d="M92 205v229h1055v-229h-1055zM92 668v227h1055v-227h-1055z" />
<glyph unicode="&#x3e;" horiz-adv-x="1449" d="M92 -35v273l869 327l-869 328v274l1266 -505v-193z" />
<glyph unicode="?" horiz-adv-x="1298" d="M102 1067q0 165 72 293t198.5 197t286.5 69q119 0 223 -47t174 -124.5t110 -177t40 -204.5q0 -88 -24.5 -166.5t-65.5 -134.5t-83.5 -94.5t-88.5 -63.5q-78 -44 -106.5 -87t-28.5 -115h-322q-8 88 27.5 180.5t94.5 158.5t124 93q78 32 118 92t40 139q0 93 -68.5 166.5 t-173.5 73.5t-175.5 -73t-70.5 -175h-301zM467 147q0 76 53.5 130.5t128.5 54.5q77 0 131 -54t54 -131q0 -75 -54.5 -128.5t-130.5 -53.5q-75 0 -128.5 53.5t-53.5 128.5z" />
<glyph unicode="@" horiz-adv-x="1886" d="M154 799q0 171 65.5 325t177 263.5t264 174t320.5 64.5q153 0 290.5 -50t239.5 -138t162 -216.5t60 -277.5q0 -124 -39 -233.5t-99.5 -182.5t-133.5 -126.5t-140.5 -78t-120.5 -24.5q-52 0 -91 29.5t-52 68.5h-4q-26 -30 -94 -64t-140 -34q-164 0 -253 105t-89 268 q0 159 60.5 289t178.5 209t273 79q79 0 150.5 -37t91.5 -82l24 89h181l-148 -576q-20 -82 -20 -98q0 -53 45 -53q92 0 170.5 120.5t77.5 290.5q0 171 -75.5 296.5t-206 189.5t-300.5 65q-180 1 -330.5 -87t-236.5 -240t-86 -334q0 -187 90 -338.5t242 -234.5t333 -83 q127 0 237.5 46t192.5 118l101 -117q-229 -219 -541 -219q-168 0 -320 63.5t-263.5 173t-177.5 265.5t-66 332zM713 793q-78 -301 135 -301q67 0 153.5 50.5t102.5 110.5l59 226q16 63 -24 120.5t-135 57.5q-113 0 -186.5 -71.5t-104.5 -192.5z" />
<glyph unicode="A" horiz-adv-x="1542" d="M31 0l524 1597h428l528 -1597h-362l-84 283h-592l-84 -283h-358zM559 565h418l-209 686z" />
<glyph unicode="B" horiz-adv-x="1509" d="M174 0v1597h688q217 0 358.5 -126.5t141.5 -313.5q0 -84 -45.5 -161.5t-118.5 -131.5q229 -106 229 -389q0 -116 -44 -208t-120.5 -149.5t-175 -87.5t-210.5 -30h-703zM498 311h350q94 0 156.5 53.5t62.5 145.5t-65.5 142t-163.5 50h-340v-391zM498 969h317 q103 0 154 47.5t51 136.5q0 72 -57 113t-132 41h-333v-338z" />
<glyph unicode="C" horiz-adv-x="1660" d="M92 786q0 170 52.5 322.5t147 267.5t236.5 182.5t310 67.5h6q534 0 715 -498l-342 -100q-20 63 -46 109.5t-68.5 88.5t-108.5 64q-63 21 -146 21h-8q-172 -1 -279 -135q-108 -135 -108 -374q-1 -247 105 -384q106 -139 296 -139h4q134 0 228 75q96 76 131 199l342 -86 q-181 -504 -707 -504q-171 0 -315 65t-240.5 177t-150.5 262t-54 319z" />
<glyph unicode="D" horiz-adv-x="1574" d="M174 0v1597h576q179 0 322.5 -65.5t234 -177.5t138.5 -257t48 -309q0 -162 -50.5 -304.5t-143.5 -250.5t-235 -170.5t-314 -62.5h-576zM498 324h256q192 0 300.5 129t108.5 335q0 215 -105 349.5t-304 134.5h-256v-948z" />
<glyph unicode="E" horiz-adv-x="1361" d="M174 0v1597h1045v-315h-717v-321h649v-295h-649v-351h778v-315h-1106z" />
<glyph unicode="F" horiz-adv-x="1284" d="M174 0v1597h1049v-313h-721v-319h649v-301h-647v-664h-330z" />
<glyph unicode="G" horiz-adv-x="1677" d="M82 809q0 134 27 253.5t85.5 224.5t144.5 181t211.5 120t278.5 44q225 0 404 -106.5t258 -288.5l-309 -137q-66 108 -144 161q-76 52 -188 52h-4q-91 -1 -162.5 -30.5t-117 -78t-75 -116t-41.5 -139t-12 -152.5v-9q0 -106 22 -194q23 -91 71.5 -163t130 -112t190.5 -40 q138 0 242 92.5t104 214.5v51h-395v283h700v-920h-305v104q-85 -78 -180 -109.5t-219 -31.5q-144 0 -264 48t-202.5 129t-140 190t-84 229.5t-26.5 249.5z" />
<glyph unicode="H" horiz-adv-x="1570" d="M174 0v1597h328v-608h637v608h329v-1597h-329v678h-637v-678h-328z" />
<glyph unicode="I" horiz-adv-x="679" d="M174 0v1597h332v-1597h-332z" />
<glyph unicode="J" horiz-adv-x="995" d="M31 4l75 328q100 -25 207 -25q63 0 109 17q29 9 50.5 38t21.5 80v1155h327v-1218q0 -200 -136.5 -304t-362.5 -104q-67 0 -291 33z" />
<glyph unicode="K" horiz-adv-x="1499" d="M174 0v1597h328v-585l495 585h443l-590 -667l618 -930h-393l-450 688l-123 -141v-547h-328z" />
<glyph unicode="L" horiz-adv-x="1243" d="M174 0v1597h328v-1282h700v-315h-1028z" />
<glyph unicode="M" horiz-adv-x="1978" d="M174 0v1597h420l379 -557l387 557h424v-1597h-332l2 1145l-481 -696l-475 698v-1147h-324z" />
<glyph unicode="N" horiz-adv-x="1755" d="M174 0v1597h375l702 -1071v1071h330v-1597h-375l-704 1069v-1069h-328z" />
<glyph unicode="O" horiz-adv-x="1708" d="M92 795q0 192 59.5 351.5t163 266t242.5 165t297 58.5q153 0 290 -57t241.5 -162t167 -266t63.5 -356v-6q0 -179 -59 -335q-60 -158 -163.5 -267t-243.5 -170.5t-296 -61.5q-157 0 -297 62t-242.5 171t-162.5 267t-60 340zM432 789q0 -235 123 -375q124 -140 301 -140 q174 0 286.5 140.5t112.5 378.5q0 246 -111.5 383t-287.5 137q-85 0 -161 -34t-134.5 -97.5t-92.5 -163.5q-36 -104 -36 -229z" />
<glyph unicode="P" horiz-adv-x="1406" d="M174 0v1597h682q99 0 183.5 -34t141 -88.5t97 -123.5t59 -138.5t19.5 -135.5v-5q0 -91 -34 -180q-35 -91 -99 -165t-164.5 -120t-220.5 -46h-336v-561h-328zM502 862h307q68 0 120 36.5t75.5 84.5t23.5 94q0 103 -65.5 163t-169.5 60l-291 -2v-436z" />
<glyph unicode="Q" horiz-adv-x="1736" d="M92 795q0 192 61 352t166.5 266t247 164.5t301.5 58.5q156 0 296 -57t247 -162t170 -266q64 -164 64 -361q0 -213 -85 -390q-86 -178 -233 -291l100 -183l-290 -147l-101 194q-92 -18 -168 -18q-159 0 -301.5 62t-247 171t-166 267t-61.5 340zM440 789q0 -236 126 -376 q126 -141 311 -141l-93 177l271 141l102 -184q55 64 89 166t34 221q0 246 -114 383t-294 137q-88 0 -165 -34t-136.5 -97.5t-94.5 -163.5q-36 -103 -36 -229z" />
<glyph unicode="R" horiz-adv-x="1458" d="M174 0v1597h700q232 0 376.5 -144t144.5 -368q0 -155 -86.5 -272t-227.5 -168l326 -645h-399l-297 621h-209v-621h-328zM502 920h379q81 0 131.5 59t50.5 137q-1 69 -59 125.5t-127 56.5h-375v-378z" />
<glyph unicode="S" horiz-adv-x="1554" d="M113 250l254 227q81 -92 194 -147.5t227 -55.5q75 0 134 16t99 55t40 97q0 37 -17 67t-44 51.5t-71.5 39.5t-89.5 30t-108 25q-48 11 -91 22.5t-103 33t-108.5 46t-99.5 62.5t-86 81.5t-57 103t-22 126.5q0 110 33.5 196.5t91 143.5t140 94.5t176 53.5t202.5 16 q185 0 338.5 -59.5t259.5 -171.5l-248 -221q-143 135 -360 135q-67 0 -123 -15q-54 -15 -94 -54q-39 -38 -39 -94q0 -25 10.5 -44.5t24 -34t41 -28.5t49 -23t61 -20.5t63.5 -17.5t70 -17q61 -14 112.5 -28.5t113.5 -37.5t110.5 -50t96 -65.5t79 -83.5t51 -104.5t19.5 -128.5 q-1 -108 -36 -195.5t-95.5 -146t-143 -98t-175 -57t-195.5 -17.5q-374 0 -684 293z" />
<glyph unicode="T" horiz-adv-x="1288" d="M31 1282v315h1226v-315h-448v-1282h-330v1282h-448z" />
<glyph unicode="U" horiz-adv-x="1646" d="M164 1597h334l-2 -964q0 -82 32 -149.5t82 -107.5t105 -61.5t106 -21.5q64 1 123 23.5t107 64.5t77 109.5t29 150.5l2 956h324v-911q0 -150 -37 -273t-99.5 -205.5t-148 -138.5t-179.5 -81.5t-196 -26.5h-7q-96 0 -187 28q-95 29 -179 89.5t-147 146.5t-100 206.5 t-37 260.5z" />
<glyph unicode="V" horiz-adv-x="1521" d="M51 1597h355l356 -1202l350 1202h358l-471 -1597h-477z" />
<glyph unicode="W" horiz-adv-x="2115" d="M51 1597h342l248 -1081l225 1081h383l221 -1081l254 1081h340l-370 -1597h-416l-219 1073l-225 -1073h-416z" />
<glyph unicode="X" horiz-adv-x="1497" d="M41 0l512 840l-463 757h387l273 -444l264 444h387l-461 -753l516 -844h-387l-326 524l-315 -524h-387z" />
<glyph unicode="Y" horiz-adv-x="1480" d="M41 1597h379l321 -585l320 585h379l-533 -960v-637h-329v637z" />
<glyph unicode="Z" horiz-adv-x="1329" d="M92 0v332l703 938h-678v327h1093v-331l-706 -938h733l-2 -328h-1143z" />
<glyph unicode="[" horiz-adv-x="815" d="M143 -250v1847h641v-225h-329v-1399h329v-223h-641z" />
<glyph unicode="\" horiz-adv-x="845" d="M20 1561l238 67l567 -1986l-235 -68z" />
<glyph unicode="]" horiz-adv-x="815" d="M31 -27h329v1399h-329v225h641v-1847h-641v223z" />
<glyph unicode="^" horiz-adv-x="1388" d="M41 383v664l651 653l656 -653v-662l-435 434v-1409h-436v1409z" />
<glyph unicode="_" horiz-adv-x="2856" d="M41 999l1059 -247v411h657v-411l1059 247l-1389 -981z" />
<glyph unicode="`" horiz-adv-x="1263" d="M348 1626h326l221 -323h-203z" />
<glyph unicode="a" horiz-adv-x="1253" d="M72 328q0 88 33.5 159.5t89 118t130 78.5t153.5 45.5t163 13.5q59 0 121 -6q2 8 3 17.5t1.5 21t1.5 17.5v9q0 52 -41 84q-45 34 -125 34q-101 0 -178.5 -26.5t-175.5 -86.5l-113 246q99 67 224.5 106t236.5 39q249 0 367 -101t118 -337v-426q0 -62 30 -92t91 -35 l-65 -248q-94 0 -180.5 30.5t-137.5 92.5q-49 -59 -134 -88t-183 -29q-83 0 -159 22.5t-137 66t-97.5 114.5t-36.5 160zM410 342q0 -50 44.5 -86.5t120.5 -36.5q87 0 138 29q51 26 51 110v146q-26 4 -90 8h-22q-38 0 -72 -5q-44 -7 -83.5 -25t-63 -54t-23.5 -86z" />
<glyph unicode="b" horiz-adv-x="1343" d="M123 0v1597h317v-491q124 92 301 92q115 -1 206.5 -36t151.5 -94t99.5 -140.5t56.5 -169t17 -185.5q0 -123 -33.5 -231t-97 -192.5t-166.5 -133.5t-232 -49q-177 0 -303 105v-72h-317zM440 440q0 -46 43 -91.5t102.5 -72t108.5 -26.5q252 0 256 354q0 143 -65 227 t-199 84h-3q-112 -1 -177 -67q-66 -68 -66 -141v-267z" />
<glyph unicode="c" horiz-adv-x="1206" d="M72 582q1 93 23 182t67.5 168.5t109.5 139.5t155 95t198 35q191 -1 315 -90.5t190 -271.5l-290 -95q-34 83 -83 128.5t-130 46.5q-61 0 -109.5 -34t-75.5 -88q-26 -53 -40 -111q-13 -54 -13 -106v-8q0 -80 25 -152t80 -122.5t129 -50.5q76 0 132.5 51.5t78.5 122.5 l301 -98q-81 -174 -203.5 -266.5t-304.5 -92.5q-107 0 -197.5 31.5t-156 88t-111.5 134t-68 169.5q-22 88 -22 185v9z" />
<glyph unicode="d" horiz-adv-x="1349" d="M72 569q0 130 33 242.5t98 200t170 138t239 50.5q185 0 297 -98v495h318v-1597h-318v72q-138 -105 -313 -105q-99 0 -184.5 32.5t-147 89t-105.5 132.5t-65.5 164.5t-21.5 183.5zM395 565q0 -83 25.5 -151.5t84 -114.5t142.5 -47q100 0 179 61t79 154v246q0 90 -75 147 q-72 55 -178 55h-7q-250 0 -250 -350z" />
<glyph unicode="e" horiz-adv-x="1222" d="M72 606q0 92 21 177t65 160.5t107 131.5t154 88.5t199 32.5q138 0 244.5 -53.5t170.5 -147.5t94 -216q25 -102 25 -217q0 -23 -1 -46l-2 -31h-768q6 -79 51.5 -134.5t106 -79t127.5 -23.5q71 0 136.5 28t100.5 66l193 -205q-71 -80 -173.5 -125t-226.5 -45 q-297 0 -460.5 170.5t-163.5 468.5zM383 721h467q-10 78 -72.5 146.5t-156.5 68.5q-98 0 -163 -67.5t-75 -147.5z" />
<glyph unicode="f" horiz-adv-x="839" d="M25 895v266h184l-2 84v19q0 173 89 265q94 97 284 97q141 0 239 -33l-55 -262q-90 21 -131 21q-57 0 -87 -33q-26 -30 -26 -78v-10l2 -70h221v-266h-221v-895h-315v895h-182z" />
<glyph unicode="g" horiz-adv-x="1294" d="M72 588q0 128 33 237t96.5 192.5t163 131t225.5 47.5q72 0 143 -22.5t119 -67.5v55h319v-1153q0 -94 -35 -169t-92 -122t-134 -78.5t-156 -44t-164 -12.5q-248 0 -467 111l123 270q179 -92 383 -92q125 0 179 46q47 39 47 139q0 16 -1 34l-2 19q-133 -60 -260 -60 q-229 0 -374.5 155.5t-145.5 383.5zM387 610q0 -115 63 -193.5t173 -78.5q235 0 235 280q0 275 -237 275q-111 0 -172.5 -83t-61.5 -200z" />
<glyph unicode="h" horiz-adv-x="1302" d="M123 0v1597h317v-505q50 49 127.5 76.5t157.5 27.5q194 0 324.5 -132.5t130.5 -322.5v-741h-320v698q0 96 -51 149.5t-143 53.5q-77 0 -151.5 -61t-74.5 -150v-690h-317z" />
<glyph unicode="i" horiz-adv-x="612" d="M123 1444q0 75 54 128.5t130 53.5q75 0 128.5 -53.5t53.5 -128.5q0 -76 -53.5 -130t-128.5 -54q-77 0 -130.5 54t-53.5 130zM147 0v1163h318v-1163h-318z" />
<glyph unicode="j" horiz-adv-x="663" d="M-123 -377q74 241 80 264q34 -12 82 -16q11 -1 22 -1q48 0 73 19q32 23 32 91v1183h317v-1286q0 -295 -383 -295q-95 0 -223 41zM143 1464q0 75 54 129t129 54q76 0 130 -54t54 -129q0 -76 -54 -130t-130 -54q-75 0 -129 54t-54 130z" />
<glyph unicode="k" horiz-adv-x="1271" d="M123 0v1597h317v-856l400 422h399l-434 -461l436 -702h-377l-293 477l-131 -137v-340h-317z" />
<glyph unicode="l" horiz-adv-x="696" d="M123 233v1364h317v-1251q0 -41 26 -61q20 -15 54 -15q12 0 25 2l86 13l35 -285q-166 -37 -273 -37q-47 0 -94 17.5t-87 50t-64.5 85.5t-24.5 117z" />
<glyph unicode="m" horiz-adv-x="1916" d="M123 0v1165h317v-73q112 104 308 104q170 0 266 -152q72 71 167 111.5t189 40.5q207 0 315.5 -125.5t108.5 -347.5v-723h-319v743q0 73 -39 114.5t-109 41.5q-84 0 -148.5 -60.5t-64.5 -144.5v-694h-313v743q0 69 -41 113.5t-105 44.5q-88 0 -151.5 -62t-63.5 -151v-688 h-317z" />
<glyph unicode="n" horiz-adv-x="1306" d="M123 0v1163h323v-73q45 47 123.5 76.5t145.5 29.5q228 0 348.5 -134.5t120.5 -367.5v-694h-324v723q0 77 -48.5 126.5t-125.5 49.5q-110 0 -176 -62.5t-66 -144.5v-692h-321z" />
<glyph unicode="o" d="M72 584q0 175 64.5 312.5t194 219.5t304.5 82q165 0 294 -81.5t198 -220.5t69 -312q0 -174 -68.5 -314.5t-197.5 -222.5t-295 -82q-165 0 -294.5 82t-199 223t-69.5 314zM385 588q0 -140 71 -235t173 -95t173.5 95t71.5 235t-71.5 235t-173.5 95t-173 -95t-71 -235z" />
<glyph unicode="p" horiz-adv-x="1343" d="M123 -381v1542h317v-59q46 40 118 67.5t151 28.5h7q142 0 248 -43q109 -44 175.5 -126.5t99 -193.5t33.5 -253q0 -137 -30 -246.5t-93.5 -193.5t-169.5 -129.5t-250 -45.5h-10q-166 0 -279 94v-442h-317zM436 457q0 -90 81 -152.5t173 -62.5q71 0 122.5 27.5t79.5 76.5 t41 105.5t13 123.5q0 68 -14 126.5t-43 108.5t-82 79t-125 29q-94 0 -170 -61t-76 -152v-248z" />
<glyph unicode="q" horiz-adv-x="1343" d="M72 582q0 141 32 252.5t98.5 194t175.5 126.5q106 43 248 43h7q79 -1 150.5 -28.5t117.5 -67.5v59h320v-1542h-320v442q-50 -45 -129 -71q-73 -23 -147 -23h-11q-144 0 -250.5 45.5t-169 129.5t-92.5 193t-30 247zM397 575q0 -67 12.5 -123.5t40.5 -105.5t79.5 -76.5 t123.5 -27.5q92 0 172 62t80 153v252q0 91 -76 150t-170 59q-71 0 -123.5 -29t-82 -79.5t-43 -109t-13.5 -125.5z" />
<glyph unicode="r" horiz-adv-x="839" d="M123 0v1163h317v-110q59 67 131 100t144 33h94v-309q-11 1 -38 3.5t-44 2.5q-128 0 -207.5 -66t-79.5 -188v-629h-317z" />
<glyph unicode="s" horiz-adv-x="1175" d="M61 123l187 211q141 -107 338 -107q176 0 176 101q0 73 -129 104l-260 68q-112 29 -193.5 115t-81.5 190q0 82 26.5 148.5t72.5 111.5t110.5 75.5t137.5 44t155 13.5q133 0 259 -46t212 -122l-184 -207q-50 46 -132 79.5t-149 33.5q-80 0 -124 -24t-44 -68 q0 -33 32 -58.5t71 -33.5l229 -64q334 -89 334 -352q0 -95 -41 -168.5t-112 -117.5t-159.5 -66.5t-189.5 -22.5q-147 0 -291 43.5t-250 118.5z" />
<glyph unicode="t" horiz-adv-x="919" d="M31 891v272h186v285l322 147v-432h292v-272h-292v-545q0 -54 25 -76q23 -20 62 -20h7q76 3 174 35l72 -267q-167 -53 -322 -53q-56 0 -102 7t-79 20t-59.5 30.5t-42.5 39t-28.5 45.5t-17 49.5t-8.5 51.5t-3 51.5t0 49.5v23v559h-186z" />
<glyph unicode="u" horiz-adv-x="1296" d="M113 451v712h321l2 -682q0 -111 50.5 -164t127.5 -53q98 0 167 64.5t69 142.5v692h324v-1163h-324v72q-45 -44 -125.5 -74.5t-144.5 -30.5q-224 0 -345.5 134.5t-121.5 349.5z" />
<glyph unicode="v" horiz-adv-x="1214" d="M29 1163h329l252 -721l242 721h334l-402 -1163h-356z" />
<glyph unicode="w" horiz-adv-x="1785" d="M29 1163h317l197 -721l172 721h352l170 -721l199 721h321l-325 -1163h-373l-166 711l-168 -711h-375z" />
<glyph unicode="x" horiz-adv-x="1210" d="M20 0l408 621l-360 542h360l174 -270l182 270h361l-361 -538l406 -625h-350l-238 350l-229 -350h-353z" />
<glyph unicode="y" horiz-adv-x="1185" d="M20 1163h326l246 -735l248 735h325l-456 -1313q-23 -66 -44.5 -108.5t-55.5 -78.5t-81.5 -52.5t-113.5 -16.5q-77 0 -172 9t-144 22l39 285q104 -29 191 -29q75 0 94 43q10 21 10 47q0 34 -16 78z" />
<glyph unicode="z" horiz-adv-x="1048" d="M72 0v283l499 608h-471v274h875v-278l-500 -608h512v-279h-915z" />
<glyph unicode="{" horiz-adv-x="784" d="M72 680v229q62 4 100.5 20.5t58 51.5t25.5 72.5t8 101.5q2 36 2 77.5t-1 92t-1 78.5q0 233 107 339.5t342 106.5v-235q-46 -3 -80 -13t-56 -28.5t-36 -39.5t-21 -54.5t-9.5 -64.5t-2.5 -77q0 -36 2 -107.5t2 -107.5q0 -117 -21 -194.5t-94 -132.5q41 -31 67 -73.5 t37 -95.5t14 -94.5t3 -103.5q0 -30 -1 -89t-1 -89q0 -47 2 -76.5t8.5 -62t19 -52t34.5 -38t54.5 -30t78.5 -18.5v-233q-187 -2 -304 90.5t-135 275.5q-10 96 -10 349q0 64 -6.5 101.5t-27 66.5t-58.5 41.5t-100 15.5z" />
<glyph unicode="|" horiz-adv-x="530" d="M143 -55v1702h244v-1702h-244z" />
<glyph unicode="}" horiz-adv-x="784" d="M72 -27q55 9 91 25t57 36t32 56t13.5 69.5t2.5 90.5q0 30 -1 89t-1 89q0 62 3 103.5t14 94.5t37 95.5t67 73.5q-38 29 -62.5 66.5t-35 83t-14 84t-3.5 93.5q0 36 2 107.5t2 107.5q0 56 -3.5 91.5t-15 72.5t-33.5 58.5t-59.5 36t-92.5 18.5v235q235 0 341.5 -106.5 t106.5 -339.5q0 -28 -1 -82t-1 -80q0 -57 2 -86q2 -51 6 -83t15.5 -65t32 -51t55 -31t84.5 -16v-229q-32 -2 -57.5 -7t-45 -10.5t-33.5 -18t-24 -22t-16 -30t-9.5 -33.5t-5 -41.5t-2 -45.5t-0.5 -53v-5q0 -188 -12 -308q-18 -183 -133.5 -275.5t-302.5 -90.5v233z" />
<glyph unicode="~" horiz-adv-x="1456" d="M168 582q109 186 307 186q57 0 134.5 -25.5t141.5 -55.5t134 -55.5t114 -25.5q22 0 43 6t41.5 21t33.5 25.5t34 35.5t27.5 33.5t27.5 36.5l84 -195q-56 -93 -129.5 -139.5t-177.5 -46.5q-58 0 -136 25.5t-141.5 55.5t-133.5 55.5t-113 25.5q-33 0 -63.5 -13.5t-58.5 -42 t-43.5 -47.5t-41.5 -55z" />
<glyph unicode="&#xa1;" horiz-adv-x="675" d="M143 -35l82 1186h226l81 -1186h-389zM156 1415q0 75 53.5 128.5t128.5 53.5q76 0 130 -53.5t54 -128.5q0 -77 -54 -130.5t-130 -53.5q-75 0 -128.5 54t-53.5 130z" />
<glyph unicode="&#xa2;" horiz-adv-x="1247" d="M92 582q1 134 44 254t134.5 214.5t218.5 131.5v168h299v-164q255 -57 363 -346l-291 -95q-34 83 -83 128.5t-130 46.5q-61 0 -109 -34t-75 -87.5t-40.5 -111.5t-12.5 -114q0 -59 15 -115.5t42.5 -104t73.5 -76.5t102 -29q76 0 132.5 51.5t78.5 122.5l301 -98 q-134 -284 -367 -342v-166h-299v168q-128 34 -219 122t-135 209.5t-43 266.5z" />
<glyph unicode="&#xa3;" horiz-adv-x="1394" d="M61 291q130 40 181 124.5t45 207.5h-195v229h133q-78 124 -78 281q0 99 34.5 187t101 157t173 109t240.5 40q239 0 383.5 -113t175.5 -315l-313 -61q-25 114 -79 156t-154 42q-108 0 -178 -67.5t-68 -167.5q1 -50 15 -90.5t39 -85t36 -72.5h408v-229h-357 q4 -73 -8.5 -131.5t-42.5 -135.5q80 7 158 -13t154 -43.5t143 -23.5q54 0 87 5t110 22q5 1 8.5 2t8.5 2t9 2l61 -311q-102 -25 -165.5 -33t-151.5 -8q-90 0 -169.5 15t-127.5 33t-118.5 33t-145.5 15q-36 0 -66.5 -2.5t-64 -9.5t-48.5 -11t-54.5 -16t-47.5 -14z" />
<glyph unicode="&#xa4;" horiz-adv-x="1781" d="M41 545l22 166h101q-4 50 -4 75q0 12 1 33t1 33h-80l22 166h82q30 131 93.5 241.5t153.5 192.5t211.5 128t260.5 46q277 1 454.5 -125t268.5 -373l-342 -100q-16 50 -34.5 88.5t-49.5 77t-70 63t-96.5 40t-128.5 14.5q-128 -2 -222 -77.5t-136 -215.5h405l-20 -166h-412 q0 -7 -1 -22.5t-1 -22.5q0 -34 4 -96h391l-22 -166h-334q44 -129 138 -197.5t225 -68.5q137 -1 233 75.5t131 198.5l342 -86q-181 -504 -706 -504q-278 0 -471.5 161t-260.5 421h-149z" />
<glyph unicode="&#xa5;" horiz-adv-x="1562" d="M82 1597h379l321 -583h2l318 583h379l-324 -583h152v-207h-269l-92 -172h361v-207h-361v-428h-330v428h-362v207h362v2l-94 170h-268v207h152z" />
<glyph unicode="&#xa6;" horiz-adv-x="489" d="M123 -41v655h244v-655h-244zM123 977v655h244v-655h-244z" />
<glyph unicode="&#xa7;" horiz-adv-x="1122" d="M82 614q0 166 182 271q-102 97 -102 237q0 71 26.5 136.5t75.5 117t125.5 82.5t169.5 31q59 0 112 -10.5t104.5 -37.5t89.5 -68t63 -107.5t28 -151.5h-249q-5 74 -43.5 116t-110.5 42q-65 0 -103 -35.5t-38 -79.5q0 -68 75 -108l318 -166q55 -28 93 -55.5t72.5 -67 t52 -92t17.5 -119.5q0 -21 -10 -55t-30 -75.5t-58.5 -81.5t-87.5 -63q123 -107 123 -262q0 -94 -36 -170t-96 -122.5t-135.5 -71.5t-158.5 -25q-99 0 -176 31t-119.5 74.5t-70 100t-36.5 99t-10 78.5h260q13 -166 172 -166q42 0 72.5 16.5t44.5 42t19.5 47t5.5 40.5 q0 49 -26.5 77.5t-88.5 61.5l-301 160q-113 60 -164 131.5t-51 197.5zM313 666q0 -44 23.5 -73t66.5 -54l310 -172q84 49 84 135q0 71 -111 131l-287 151q-41 -15 -63.5 -53t-22.5 -65z" />
<glyph unicode="&#xa8;" horiz-adv-x="1292" d="M246 1450q0 62 43 104.5t104 42.5q62 0 105 -43t43 -104t-43 -104t-105 -43q-61 0 -104 42.5t-43 104.5zM670 1450q0 62 43 104.5t104 42.5q62 0 105 -43t43 -104t-43 -104t-105 -43q-61 0 -104 42.5t-43 104.5z" />
<glyph unicode="&#xa9;" horiz-adv-x="1906" d="M123 797q0 168 66 321.5t177 264.5t265 177t323 66q168 0 322 -66t265 -177t177 -264.5t66 -321.5q0 -169 -66 -323t-177 -265.5t-265 -177.5t-322 -66q-169 0 -323 66t-265 177.5t-177 265.5t-66 323zM180 795q0 -157 61 -300t164.5 -246.5t246.5 -164.5t300 -61 q158 0 301 61t247 164.5t165 246.5t61 300q0 158 -61 301t-165 247t-247 165t-301 61q-157 0 -300 -61t-246.5 -165t-164.5 -247t-61 -301zM369 799q0 159 78 294t212.5 213t292.5 78q163 0 303 -81t207 -209l-233 -136q-38 72 -112.5 114t-164.5 42q-131 0 -222 -91.5 t-91 -223.5q0 -131 91.5 -222.5t221.5 -91.5q86 0 159.5 43t111.5 109l231 -139q-74 -126 -208.5 -204.5t-293.5 -78.5q-158 0 -292.5 78.5t-212.5 213t-78 292.5z" />
<glyph unicode="&#xaa;" horiz-adv-x="1028" d="M61 924q0 74 27 133t71 97t104 63.5t123 36t130 10.5q40 0 98 -7q1 7 2 23t2 23q3 46 -33 74t-100 28q-81 0 -141.5 -21.5t-140.5 -70.5l-90 198q174 115 360 115q200 0 297.5 -83t97.5 -273v-334q0 -50 24.5 -74.5t74.5 -27.5l-54 -199q-72 0 -144 24.5t-110 73.5 q-97 -94 -225 -94q-69 0 -133 16.5t-119 49.5t-88 89.5t-33 129.5zM332 940q0 -94 133 -94q74 0 108 20q41 21 41 88l2 117q-2 0 -73 6q-54 2 -99 -8t-78.5 -43t-33.5 -86z" />
<glyph unicode="&#xab;" horiz-adv-x="1030" d="M102 477v262l363 312v-252l-217 -191l217 -190v-252zM565 477v262l363 312v-252l-217 -191l217 -190v-252z" />
<glyph unicode="&#xac;" horiz-adv-x="1175" d="M113 571v271h950v-621h-232v350h-718z" />
<glyph unicode="&#xad;" horiz-adv-x="681" d="M61 537v272h517v-272h-517z" />
<glyph unicode="&#xae;" horiz-adv-x="1906" d="M123 797q0 169 65.5 322.5t176.5 264.5t265 176.5t324 65.5q169 0 323 -65.5t265 -176.5t176.5 -264.5t65.5 -322.5q0 -136 -42 -263t-118.5 -229.5t-178.5 -179t-229 -118.5t-262 -42q-170 0 -324 65.5t-265 177t-176.5 265.5t-65.5 324zM295 795q0 -135 51.5 -256.5 t139.5 -209.5t210 -140t256 -52q245 0 428 156h-196l-228 391h-131v-391h-207v1007h441q146 0 236.5 -91t90.5 -232q0 -94 -54.5 -164.5t-145.5 -112.5l223 -383q95 92 149 216.5t54 261.5q0 181 -88 332.5t-239.5 239t-332.5 87.5q-135 0 -256.5 -52t-209.5 -139.5 t-139.5 -210t-51.5 -257.5zM825 872h238q52 0 83.5 37t31.5 86q0 44 -37 80.5t-80 36.5h-236v-240z" />
<glyph unicode="&#xaf;" horiz-adv-x="722" d="M-12 1313v160h749v-160h-749z" />
<glyph unicode="&#xb0;" horiz-adv-x="866" d="M92 1286q0 141 100.5 240.5t241.5 99.5t240.5 -99.5t99.5 -240.5t-99.5 -241.5t-240.5 -100.5t-241.5 100.5t-100.5 241.5zM274 1286q0 -66 47 -113t113 -47q65 0 111.5 47t46.5 113q0 64 -47 111t-111 47q-66 0 -113 -46.5t-47 -111.5z" />
<glyph unicode="&#xb1;" horiz-adv-x="1259" d="M82 0v244h1094v-244h-1094zM82 819v244h426v428h244v-428h426v-244h-426v-428h-244v428h-426z" />
<glyph unicode="&#xb2;" horiz-adv-x="1040" d="M61 1243q0 213 108.5 328t311.5 115q185 2 290.5 -101.5t105.5 -284.5q0 -160 -105 -291.5t-262 -215.5h362l2 -213h-792v215q54 30 83.5 46.5t96 57t108.5 70t97.5 75.5t88 85t56 86t23.5 90q0 68 -42.5 115.5t-109.5 47.5q-89 0 -134.5 -67t-39.5 -158h-248z" />
<glyph unicode="&#xb3;" horiz-adv-x="1064" d="M61 907l234 41q18 -85 74 -132.5t145 -47.5q78 0 127 39.5t49 112.5q0 26 -10.5 46.5t-24 33t-39 22t-43.5 13.5t-51 6.5t-47 2.5h-45h-16v195h5q14 1 42.5 -0.5t66 5.5t71 17.5t56.5 37.5t23 65q0 45 -29.5 73t-65 37t-77.5 9q-174 0 -211 -154l-234 27q87 327 449 327 q76 0 146.5 -21.5t127.5 -60.5t91 -102t34 -139q0 -73 -29.5 -132.5t-93.5 -82.5q64 -30 100 -91.5t36 -133.5q0 -188 -102.5 -271.5t-311.5 -83.5q-373 0 -447 342z" />
<glyph unicode="&#xb4;" horiz-adv-x="1284" d="M430 1303l221 323h326l-346 -323h-201z" />
<glyph unicode="&#xb5;" horiz-adv-x="1282" d="M20 -422l318 1491h272l-153 -733q-4 -28 -4 -41q-2 -39 25 -70.5t69 -31.5q101 0 175.5 83t100.5 207l125 586h273l-232 -1098h-264l12 49q-47 -41 -95 -57t-110 -16q-32 0 -76 13t-71 40l-90 -422h-275z" />
<glyph unicode="&#xb6;" horiz-adv-x="1148" d="M72 981q0 226 135 356.5t348 130.5h553v-172h-115v-1658h-188v1658h-156v-1658h-190v860q-119 9 -208 77t-134 173.5t-45 232.5z" />
<glyph unicode="&#xb7;" horiz-adv-x="593" d="M102 803q0 67 48 115.5t116 48.5t116 -48.5t48 -115.5t-48 -115.5t-116 -48.5t-116 48.5t-48 115.5z" />
<glyph unicode="&#xb8;" horiz-adv-x="1712" d="M698 -233q51 -29 117 -29q41 0 76 26.5t35 73.5q0 79 -48 122.5t-114 45.5h143q88 0 165 -71t77 -173q0 -89 -63 -134.5t-160 -45.5q-107 0 -195 58z" />
<glyph unicode="&#xb9;" horiz-adv-x="600" d="M61 1358v166q80 3 119 37q50 44 53 125h224v-1092h-248v764h-148z" />
<glyph unicode="&#xba;" horiz-adv-x="1024" d="M61 1133q0 141 51.5 251.5t155 176t244.5 65.5q200 0 325.5 -140.5t125.5 -352.5q0 -138 -55.5 -250t-159 -178t-236.5 -66q-199 0 -325 141.5t-126 352.5zM311 1137q0 -112 57.5 -188.5t139.5 -76.5t139.5 76.5t57.5 188.5q0 113 -57 188.5t-140 75.5t-140 -75.5 t-57 -188.5z" />
<glyph unicode="&#xbb;" horiz-adv-x="1030" d="M102 166v252l217 190l-217 191v252l363 -312v-262zM565 166v252l217 190l-217 191v252l363 -312v-262z" />
<glyph unicode="&#xbc;" horiz-adv-x="1419" d="M61 1358v166q80 3 119 37q50 44 53 125h224v-1092h-248v764h-148zM346 111v231l539 664h313v-664h160v-231h-160v-181h-248v181h-604zM629 342h321v397z" />
<glyph unicode="&#xbd;" horiz-adv-x="1470" d="M61 1358v166q82 3 119 35q50 44 53 124h224v-1089h-248v764h-148zM553 594q0 213 108.5 327.5t311.5 114.5q185 2 290 -101t105 -284q0 -83 -30 -161.5t-82.5 -142t-116.5 -114.5t-138 -90h365v-213h-793v215q44 24 63 34.5t72 41.5t83 50.5t80 54t80.5 61t68 63t58.5 68 t35.5 67.5t14.5 70q0 68 -42.5 116t-110.5 48q-89 0 -134.5 -67t-39.5 -158h-248z" />
<glyph unicode="&#xbe;" horiz-adv-x="1755" d="M61 907l234 41q18 -85 74 -132.5t145 -47.5q78 0 127 39.5t49 112.5q0 26 -10.5 46.5t-24 33t-39 22t-43.5 13.5t-51 6.5t-47 2.5h-45h-16v195h5q14 1 42.5 -0.5t66 5.5t71 17.5t56.5 37.5t23 65q0 45 -29.5 73t-65 37t-77.5 9q-174 0 -211 -154l-234 27q87 327 449 327 q76 0 146.5 -21.5t127.5 -60.5t91 -102t34 -139q0 -73 -29.5 -132.5t-93.5 -82.5q64 -30 100 -91.5t36 -133.5q0 -188 -102.5 -271.5t-311.5 -83.5q-373 0 -447 342zM682 111v231l541 664h311v-664h160v-231h-160v-181h-248v181h-604zM967 342h319v397z" />
<glyph unicode="&#xbf;" horiz-adv-x="1257" d="M82 518q0 88 24.5 166.5t64.5 134.5t82.5 94.5t88.5 63.5q78 44 106.5 87.5t28.5 115.5h322q8 -88 -27.5 -180.5t-94.5 -158.5t-124 -93q-158 -67 -158 -232q0 -93 69 -166.5t175 -73.5q104 0 174 73t70 175h303q0 -249 -157.5 -404t-399.5 -155q-120 0 -224 47 t-174 124.5t-109.5 177t-39.5 204.5zM455 1442q0 76 53.5 130t128.5 54q77 0 130.5 -54t53.5 -130q0 -75 -54 -128.5t-130 -53.5q-75 0 -128.5 53.5t-53.5 128.5z" />
<glyph unicode="&#xc0;" horiz-adv-x="1542" d="M31 0l524 1597h428l528 -1597h-362l-84 283h-592l-84 -283h-358zM467 2023h326l221 -321h-203zM559 565h418l-209 686z" />
<glyph unicode="&#xc1;" horiz-adv-x="1542" d="M31 0l524 1597h428l528 -1597h-362l-84 283h-592l-84 -283h-358zM518 1698l221 321h326l-344 -321h-203zM559 565h418l-209 686z" />
<glyph unicode="&#xc2;" horiz-adv-x="1542" d="M31 0l524 1597h428l528 -1597h-362l-84 283h-592l-84 -283h-358zM367 1702l260 321h272l260 -321h-223l-174 213l-172 -213h-223zM559 565h418l-209 686z" />
<glyph unicode="&#xc3;" horiz-adv-x="1542" d="M31 0l524 1597h428l528 -1597h-362l-84 283h-592l-84 -283h-358zM362 1702q10 113 75 187.5t175 74.5q66 0 164.5 -44t145.5 -44q87 0 108 84h139q-5 -121 -68.5 -189.5t-176.5 -68.5q-56 0 -160 45t-158 45q-41 0 -68.5 -25t-35.5 -65h-140zM559 565h418l-209 686z" />
<glyph unicode="&#xc4;" horiz-adv-x="1542" d="M31 0l524 1597h428l528 -1597h-362l-84 283h-592l-84 -283h-358zM412 1847q0 62 43 105t104 43t104.5 -43.5t43.5 -104.5t-43 -104t-105 -43q-61 0 -104 43t-43 104zM559 565h418l-209 686zM836 1847q0 62 43 105t104 43t104 -43t43 -105q0 -61 -43 -104t-104 -43 t-104 43t-43 104z" />
<glyph unicode="&#xc5;" horiz-adv-x="1542" d="M31 0l524 1597h428l528 -1597h-362l-84 283h-592l-84 -283h-358zM535 1925q0 97 68.5 165.5t166.5 68.5q97 0 165.5 -68.5t68.5 -165.5q0 -98 -68.5 -166.5t-165.5 -68.5q-98 0 -166.5 68.5t-68.5 166.5zM559 565h418l-209 686zM676 1923q0 -38 27 -65t67 -27q38 0 65 27 t27 65q0 40 -27 67t-65 27q-40 0 -67 -27t-27 -67z" />
<glyph unicode="&#xc6;" horiz-adv-x="2340" d="M31 0l1042 1597h1122v-315h-712v-321h647v-295h-647l2 -351h774v-315h-1110l2 283h-586l-176 -283h-358zM743 565h408v652z" />
<glyph unicode="&#xc7;" horiz-adv-x="1660" d="M92 786q0 170 52.5 322.5t147 267.5t236.5 182.5t310 67.5q539 3 721 -498l-342 -100q-20 63 -46 109.5t-68.5 88.5t-108.5 64t-154 21q-172 -2 -279 -135.5t-108 -368.5q-1 -250 105.5 -389t295.5 -139q137 -1 232.5 75t130.5 199l342 -86q-151 -430 -562 -492 q56 -33 92.5 -89.5t36.5 -123.5q0 -89 -63 -134.5t-160 -45.5q-106 0 -194 58l-33 127q51 -29 117 -29q41 0 75.5 26.5t34.5 73.5q0 79 -53 125q-137 0 -257.5 42t-211.5 118t-156.5 178.5t-99 226t-33.5 258.5z" />
<glyph unicode="&#xc8;" horiz-adv-x="1361" d="M174 0v1597h1045v-315h-717v-321h649v-295h-649v-351h778v-315h-1106zM391 2025h326l221 -321h-201z" />
<glyph unicode="&#xc9;" horiz-adv-x="1361" d="M174 0v1597h1045v-315h-717v-321h649v-295h-649v-351h778v-315h-1106zM465 1700l219 321h326l-344 -321h-201z" />
<glyph unicode="&#xca;" horiz-adv-x="1361" d="M174 0v1597h1045v-315h-717v-321h649v-295h-649v-351h778v-315h-1106zM307 1702l258 321h273l260 -321h-224l-172 213l-172 -213h-223z" />
<glyph unicode="&#xcb;" horiz-adv-x="1361" d="M174 0v1597h1045v-315h-717v-321h649v-295h-649v-351h778v-315h-1106zM344 1849q0 61 43 104.5t105 43.5q61 0 104 -43t43 -105q0 -61 -42.5 -104t-104.5 -43t-105 43t-43 104zM768 1849q0 62 43 105t104 43t104.5 -43.5t43.5 -104.5t-43 -104t-105 -43q-61 0 -104 43 t-43 104z" />
<glyph unicode="&#xcc;" horiz-adv-x="720" d="M6 2023h326l221 -321h-201zM195 0v1597h331v-1597h-331z" />
<glyph unicode="&#xcd;" horiz-adv-x="720" d="M174 1702l219 321h326l-344 -321h-201zM195 0v1597h331v-1597h-331z" />
<glyph unicode="&#xce;" horiz-adv-x="720" d="M-35 1702l260 321h273l260 -321h-223l-173 213l-172 -213h-225zM195 0v1597h331v-1597h-331z" />
<glyph unicode="&#xcf;" horiz-adv-x="720" d="M6 1849q0 61 43 104.5t105 43.5q61 0 104 -43t43 -105q0 -61 -42.5 -104t-104.5 -43t-105 43t-43 104zM195 0v1597h331v-1597h-331zM430 1849q0 61 43 104.5t105 43.5q61 0 104 -43t43 -105q0 -61 -42.5 -104t-104.5 -43t-105 43t-43 104z" />
<glyph unicode="&#xd0;" horiz-adv-x="1591" d="M82 678v244h108v675h635q116 0 223 -43t189.5 -117t144.5 -170t94.5 -206t32.5 -221q0 -201 -56 -361t-157.5 -264.5t-241.5 -159.5t-309 -55h-555v678h-108zM514 324h295q82 0 153 41.5t117 106.5t72.5 144t26.5 156q0 112 -25.5 202.5t-77 159.5t-137 106t-199.5 36 l-225 -2v-352h254v-244h-254v-354z" />
<glyph unicode="&#xd1;" horiz-adv-x="1755" d="M174 0v1597h375l702 -1071v1071h330v-1597h-375l-704 1069v-1069h-328zM502 1700q10 113 75 187.5t175 74.5q66 0 164 -44t145 -44q85 0 106 84h140q-5 -122 -68.5 -190t-177.5 -68q-55 0 -158.5 45t-157.5 45q-41 0 -68.5 -25t-35.5 -65h-139z" />
<glyph unicode="&#xd2;" horiz-adv-x="1708" d="M92 795q0 192 59.5 351.5t163 266t242.5 165t297 58.5q153 0 290 -57t241.5 -162t167 -266t63.5 -356q1 -183 -59 -341.5t-163.5 -267t-243.5 -170t-296 -61.5q-157 0 -297 62t-242.5 171t-162.5 267t-60 340zM432 793q-1 -238 123 -378.5t301 -140.5q174 0 286.5 140.5 t112.5 378.5q0 246 -111.5 383t-287.5 137q-85 0 -161 -34t-134.5 -97.5t-93 -164t-35.5 -224.5zM535 2021h325l221 -321h-202z" />
<glyph unicode="&#xd3;" horiz-adv-x="1708" d="M92 795q0 192 59.5 351.5t163 266t242.5 165t297 58.5q153 0 290 -57t241.5 -162t167 -266t63.5 -356q1 -183 -59 -341.5t-163.5 -267t-243.5 -170t-296 -61.5q-157 0 -297 62t-242.5 171t-162.5 267t-60 340zM432 793q-1 -238 123 -378.5t301 -140.5q174 0 286.5 140.5 t112.5 378.5q0 246 -111.5 383t-287.5 137q-85 0 -161 -34t-134.5 -97.5t-93 -164t-35.5 -224.5zM635 1702l221 321h324l-344 -321h-201z" />
<glyph unicode="&#xd4;" horiz-adv-x="1708" d="M92 795q0 192 59.5 351.5t163 266t242.5 165t297 58.5q153 0 290 -57t241.5 -162t167 -266t63.5 -356q1 -183 -59 -341.5t-163.5 -267t-243.5 -170t-296 -61.5q-157 0 -297 62t-242.5 171t-162.5 267t-60 340zM432 793q-1 -238 123 -378.5t301 -140.5q174 0 286.5 140.5 t112.5 378.5q0 246 -111.5 383t-287.5 137q-85 0 -161 -34t-134.5 -97.5t-93 -164t-35.5 -224.5zM465 1700l260 321h270l260 -321h-223l-172 213l-172 -213h-223z" />
<glyph unicode="&#xd5;" horiz-adv-x="1708" d="M92 795q0 192 59.5 351.5t163 266t242.5 165t297 58.5q153 0 290 -57t241.5 -162t167 -266t63.5 -356q1 -183 -59 -341.5t-163.5 -267t-243.5 -170t-296 -61.5q-157 0 -297 62t-242.5 171t-162.5 267t-60 340zM432 793q-1 -238 123 -378.5t301 -140.5q174 0 286.5 140.5 t112.5 378.5q0 246 -111.5 383t-287.5 137q-85 0 -161 -34t-134.5 -97.5t-93 -164t-35.5 -224.5zM457 1702q10 112 75.5 187t174.5 75q66 0 165 -44t146 -44q85 0 106 84h140q-5 -121 -69 -189.5t-177 -68.5q-56 0 -159 45t-157 45q-42 0 -69.5 -24.5t-36.5 -65.5h-139z" />
<glyph unicode="&#xd6;" horiz-adv-x="1708" d="M92 795q0 192 59.5 351.5t163 266t242.5 165t297 58.5q153 0 290 -57t241.5 -162t167 -266t63.5 -356q1 -183 -59 -341.5t-163.5 -267t-243.5 -170t-296 -61.5q-157 0 -297 62t-242.5 171t-162.5 267t-60 340zM432 793q-1 -238 123 -378.5t301 -140.5q174 0 286.5 140.5 t112.5 378.5q0 246 -111.5 383t-287.5 137q-85 0 -161 -34t-134.5 -97.5t-93 -164t-35.5 -224.5zM483 1849q0 61 43.5 104.5t104.5 43.5t104 -43t43 -105q0 -61 -43 -104t-104 -43q-62 0 -105 43t-43 104zM907 1849q0 61 43.5 104.5t104.5 43.5t104 -43t43 -105 q0 -61 -43 -104t-104 -43q-62 0 -105 43t-43 104z" />
<glyph unicode="&#xd7;" horiz-adv-x="1241" d="M72 174l377 375l-377 377l172 172l374 -377l377 377l172 -172l-376 -377l378 -375l-174 -172l-377 377l-372 -377z" />
<glyph unicode="&#xd8;" horiz-adv-x="1708" d="M92 795q0 192 59.5 351.5t163 266t242.5 165t297 58.5q72 0 139 -12l45 158l193 -68l-43 -153q194 -96 310.5 -293.5t117.5 -472.5q1 -183 -59 -341.5t-163.5 -267t-243.5 -170t-296 -61.5q-68 0 -129 12l-49 -168l-191 68l47 162q-200 96 -320 299t-120 467zM432 793 q0 -150 51.5 -264t141.5 -179l276 959q-28 4 -45 4q-85 0 -161 -34t-134.5 -97.5t-93 -164t-35.5 -224.5zM815 276q7 0 20.5 -1t20.5 -1q174 0 286.5 140.5t112.5 378.5q0 301 -163 438z" />
<glyph unicode="&#xd9;" horiz-adv-x="1646" d="M164 1597h334l-2 -964q0 -82 32 -149.5t82 -107.5t105 -61.5t106 -21.5q64 1 123 23.5t107 64.5t77 109.5t29 150.5l2 956h324v-911q0 -150 -37 -273t-99.5 -205.5t-148 -138.5t-179.5 -81.5t-196 -26.5q-99 -1 -194 28t-179 89.5t-147 146.5t-100 206.5t-37 260.5z M526 2023h326l221 -321h-203z" />
<glyph unicode="&#xda;" horiz-adv-x="1646" d="M164 1597h334l-2 -964q0 -82 32 -149.5t82 -107.5t105 -61.5t106 -21.5q64 1 123 23.5t107 64.5t77 109.5t29 150.5l2 956h324v-911q0 -150 -37 -273t-99.5 -205.5t-148 -138.5t-179.5 -81.5t-196 -26.5q-99 -1 -194 28t-179 89.5t-147 146.5t-100 206.5t-37 260.5z M547 1698l221 321h326l-344 -321h-203z" />
<glyph unicode="&#xdb;" horiz-adv-x="1646" d="M164 1597h334l-2 -964q0 -82 32 -149.5t82 -107.5t105 -61.5t106 -21.5q64 1 123 23.5t107 64.5t77 109.5t29 150.5l2 956h324v-911q0 -150 -37 -273t-99.5 -205.5t-148 -138.5t-179.5 -81.5t-196 -26.5q-99 -1 -194 28t-179 89.5t-147 146.5t-100 206.5t-37 260.5z M444 1702l261 321h272l260 -321h-223l-174 213l-172 -213h-224z" />
<glyph unicode="&#xdc;" horiz-adv-x="1646" d="M164 1597h334l-2 -964q0 -82 32 -149.5t82 -107.5t105 -61.5t106 -21.5q64 1 123 23.5t107 64.5t77 109.5t29 150.5l2 956h324v-911q0 -150 -37 -273t-99.5 -205.5t-148 -138.5t-179.5 -81.5t-196 -26.5q-99 -1 -194 28t-179 89.5t-147 146.5t-100 206.5t-37 260.5z M467 1847q0 62 43 105t104 43q60 0 104 -43.5t44 -104.5t-44 -104t-104 -43q-62 0 -104.5 43t-42.5 104zM891 1847q0 62 43 105t104 43q60 0 104 -43.5t44 -104.5t-44 -104t-104 -43q-62 0 -104.5 43t-42.5 104z" />
<glyph unicode="&#xdd;" horiz-adv-x="1480" d="M41 1597h379l321 -585l320 585h379l-533 -960v-637h-329v637zM532 1698l222 321h325l-346 -321h-201z" />
<glyph unicode="&#xde;" horiz-adv-x="1425" d="M133 0v1593h326v-237h321q259 0 421.5 -144.5t162.5 -384.5t-162.5 -384t-421.5 -144h-321v-299h-326zM459 551h262q149 0 226 74t77 202q0 150 -80.5 213.5t-222.5 63.5h-262v-553z" />
<glyph unicode="&#xdf;" horiz-adv-x="1310" d="M113 0v1087q0 254 139.5 396.5t392.5 142.5q99 0 191.5 -33t164.5 -92.5t115 -149t43 -194.5q0 -85 -44.5 -164t-108.5 -125q107 -51 170 -145.5t63 -214.5q0 -235 -149 -372.5t-385 -135.5h-27v307q97 -1 149 62.5t54 146.5q0 68 -58 128.5t-145 60.5v243 q64 18 103.5 67.5t39.5 117.5q1 79 -52.5 128.5t-129.5 47.5q-83 0 -133.5 -54t-50.5 -139l-4 -1116h-338z" />
<glyph unicode="&#xe0;" horiz-adv-x="1253" d="M72 328q0 88 33.5 159.5t89 118t130 78.5t153.5 45.5t163 13.5q59 0 121 -6q2 8 3 17.5t1.5 21t1.5 17.5q4 58 -41 92.5t-125 34.5q-101 0 -178.5 -26.5t-175.5 -86.5l-113 246q99 67 224.5 106t236.5 39q249 0 367 -101t118 -337v-426q0 -62 30 -92t91 -35l-65 -248 q-94 0 -180.5 30.5t-137.5 92.5q-49 -59 -134 -88t-183 -29q-83 0 -159 22.5t-137 66t-97.5 114.5t-36.5 160zM217 1626h324l221 -323h-201zM410 342q0 -50 44.5 -86.5t120.5 -36.5q87 0 138 29q51 26 51 110v146q-26 4 -90 8q-50 2 -94 -5t-83.5 -25t-63 -54t-23.5 -86z " />
<glyph unicode="&#xe1;" horiz-adv-x="1253" d="M72 328q0 88 33.5 159.5t89 118t130 78.5t153.5 45.5t163 13.5q59 0 121 -6q2 8 3 17.5t1.5 21t1.5 17.5q4 58 -41 92.5t-125 34.5q-101 0 -178.5 -26.5t-175.5 -86.5l-113 246q99 67 224.5 106t236.5 39q249 0 367 -101t118 -337v-426q0 -62 30 -92t91 -35l-65 -248 q-94 0 -180.5 30.5t-137.5 92.5q-49 -59 -134 -88t-183 -29q-83 0 -159 22.5t-137 66t-97.5 114.5t-36.5 160zM410 342q0 -50 44.5 -86.5t120.5 -36.5q87 0 138 29q51 26 51 110v146q-26 4 -90 8q-50 2 -94 -5t-83.5 -25t-63 -54t-23.5 -86zM436 1303l221 323h326l-344 -323 h-203z" />
<glyph unicode="&#xe2;" horiz-adv-x="1253" d="M72 328q0 88 33.5 159.5t89 118t130 78.5t153.5 45.5t163 13.5q59 0 121 -6q2 8 3 17.5t1.5 21t1.5 17.5q4 58 -41 92.5t-125 34.5q-101 0 -178.5 -26.5t-175.5 -86.5l-113 246q99 67 224.5 106t236.5 39q249 0 367 -101t118 -337v-426q0 -62 30 -92t91 -35l-65 -248 q-94 0 -180.5 30.5t-137.5 92.5q-49 -59 -134 -88t-183 -29q-83 0 -159 22.5t-137 66t-97.5 114.5t-36.5 160zM190 1303l261 323h272l260 -323h-223l-174 213l-172 -213h-224zM410 342q0 -50 44.5 -86.5t120.5 -36.5q87 0 138 29q51 26 51 110v146q-26 4 -90 8q-50 2 -94 -5 t-83.5 -25t-63 -54t-23.5 -86z" />
<glyph unicode="&#xe3;" horiz-adv-x="1253" d="M72 328q0 88 33.5 159.5t89 118t130 78.5t153.5 45.5t163 13.5q59 0 121 -6q2 8 3 17.5t1.5 21t1.5 17.5q4 58 -41 92.5t-125 34.5q-101 0 -178.5 -26.5t-175.5 -86.5l-113 246q99 67 224.5 106t236.5 39q249 0 367 -101t118 -337v-426q0 -62 30 -92t91 -35l-65 -248 q-94 0 -180.5 30.5t-137.5 92.5q-49 -59 -134 -88t-183 -29q-83 0 -159 22.5t-137 66t-97.5 114.5t-36.5 160zM223 1282q10 113 75 187.5t175 74.5q65 0 164 -44t147 -44q86 0 107 84h139q-5 -121 -69 -189.5t-177 -68.5q-56 0 -159.5 45t-157.5 45q-40 0 -68 -24.5 t-37 -65.5h-139zM410 342q0 -50 44.5 -86.5t120.5 -36.5q87 0 138 29q51 26 51 110v146q-26 4 -90 8q-50 2 -94 -5t-83.5 -25t-63 -54t-23.5 -86z" />
<glyph unicode="&#xe4;" horiz-adv-x="1253" d="M72 328q0 88 33.5 159.5t89 118t130 78.5t153.5 45.5t163 13.5q59 0 121 -6q2 8 3 17.5t1.5 21t1.5 17.5q4 58 -41 92.5t-125 34.5q-101 0 -178.5 -26.5t-175.5 -86.5l-113 246q99 67 224.5 106t236.5 39q249 0 367 -101t118 -337v-426q0 -62 30 -92t91 -35l-65 -248 q-94 0 -180.5 30.5t-137.5 92.5q-49 -59 -134 -88t-183 -29q-83 0 -159 22.5t-137 66t-97.5 114.5t-36.5 160zM242 1450q0 62 43 104.5t104 42.5q62 0 105 -43t43 -104t-43 -104t-105 -43q-61 0 -104 42.5t-43 104.5zM410 342q0 -50 44.5 -86.5t120.5 -36.5q87 0 138 29 q51 26 51 110v146q-26 4 -90 8q-50 2 -94 -5t-83.5 -25t-63 -54t-23.5 -86zM666 1450q0 62 43 104.5t104 42.5q62 0 105 -43t43 -104t-43 -104t-105 -43q-61 0 -104 42.5t-43 104.5z" />
<glyph unicode="&#xe5;" horiz-adv-x="1253" d="M72 328q0 88 33.5 159.5t89 118t130 78.5t153.5 45.5t163 13.5q59 0 121 -6q2 8 3 17.5t1.5 21t1.5 17.5q4 58 -41 92.5t-125 34.5q-101 0 -178.5 -26.5t-175.5 -86.5l-113 246q99 67 224.5 106t236.5 39q249 0 367 -101t118 -337v-426q0 -62 30 -92t91 -35l-65 -248 q-94 0 -180.5 30.5t-137.5 92.5q-49 -59 -134 -88t-183 -29q-83 0 -159 22.5t-137 66t-97.5 114.5t-36.5 160zM354 1530q0 97 69 166t167 69q97 0 165 -69t68 -166t-68 -165.5t-165 -68.5q-98 0 -167 68.5t-69 165.5zM410 342q0 -50 44.5 -86.5t120.5 -36.5q87 0 138 29 q51 26 51 110v146q-26 4 -90 8q-50 2 -94 -5t-83.5 -25t-63 -54t-23.5 -86zM496 1530q0 -38 27 -66t65 -28q39 0 66.5 27.5t27.5 66.5t-27.5 66.5t-66.5 27.5q-38 0 -65 -28t-27 -66z" />
<glyph unicode="&#xe6;" horiz-adv-x="1861" d="M51 319q0 92 33.5 166t89 121.5t130.5 79t153.5 44.5t163.5 13q59 0 120 -6q2 7 7 56q4 58 -41 92.5t-125 34.5q-101 0 -179 -26.5t-176 -86.5l-112 246q211 143 452 143q272 0 383 -100q121 100 307 100q138 0 244.5 -53.5t170.5 -147.5t94 -216t24 -263l-2 -31h-768 q5 -63 32 -111t68.5 -75t88 -40t96.5 -13q63 0 133 30.5t104 67.5l201 -182q-81 -97 -185.5 -147t-254.5 -50q-141 0 -254 43q-99 39 -168 125q-91 -168 -373 -168q-86 0 -164.5 20t-145.5 60.5t-107 111t-40 162.5zM389 340q0 -119 166 -119q90 0 137 27q51 26 51 110v146 q-26 4 -90 8q-50 2 -94 -5.5t-83.5 -25.5t-63 -54.5t-23.5 -86.5zM1024 725h463q-5 35 -22 70.5t-45.5 67.5t-72 51.5t-94.5 19.5q-92 1 -156.5 -66t-72.5 -143z" />
<glyph unicode="&#xe7;" horiz-adv-x="1206" d="M72 582q1 93 23 182t67.5 168.5t109.5 139.5t155 95t198 35q191 -1 315 -90.5t190 -271.5l-290 -95q-34 83 -83 128.5t-130 46.5q-61 0 -109.5 -34t-75.5 -87.5t-40.5 -111.5t-12.5 -114q0 -80 25 -152t80 -122.5t129 -50.5q76 0 132.5 51.5t78.5 122.5l301 -98 q-147 -311 -416 -353q55 -32 90 -87.5t35 -121.5q0 -89 -63 -134.5t-160 -45.5q-107 0 -195 58l-33 127q51 -29 117 -29q41 0 76 26.5t35 73.5q0 82 -58 129q-157 15 -270.5 102t-167.5 219t-53 294z" />
<glyph unicode="&#xe8;" horiz-adv-x="1222" d="M72 606q0 92 21 177t65 160.5t107 131.5t154 88.5t199 32.5q138 0 244.5 -53.5t170.5 -147.5t94 -216t24 -263l-2 -31h-768q4 -64 31 -111t69 -72.5t88 -37.5t97 -12q63 0 129.5 30t101.5 68l207 -188q-162 -195 -408 -195q-297 0 -460.5 170.5t-163.5 468.5zM254 1626 h326l219 -323h-201zM385 721h463q-10 79 -70.5 146t-154.5 67q-98 0 -163 -66.5t-75 -146.5z" />
<glyph unicode="&#xe9;" horiz-adv-x="1222" d="M72 606q0 92 21 177t65 160.5t107 131.5t154 88.5t199 32.5q138 0 244.5 -53.5t170.5 -147.5t94 -216t24 -263l-2 -31h-768q4 -64 31 -111t69 -72.5t88 -37.5t97 -12q63 0 129.5 30t101.5 68l207 -188q-162 -195 -408 -195q-297 0 -460.5 170.5t-163.5 468.5zM385 721 h463q-10 79 -70.5 146t-154.5 67q-98 0 -163 -66.5t-75 -146.5zM453 1303l221 323h325l-344 -323h-202z" />
<glyph unicode="&#xea;" horiz-adv-x="1222" d="M72 606q0 92 21 177t65 160.5t107 131.5t154 88.5t199 32.5q138 0 244.5 -53.5t170.5 -147.5t94 -216t24 -263l-2 -31h-768q4 -64 31 -111t69 -72.5t88 -37.5t97 -12q63 0 129.5 30t101.5 68l207 -188q-162 -195 -408 -195q-297 0 -460.5 170.5t-163.5 468.5zM225 1303 l260 323h273l260 -323h-223l-172 213l-174 -213h-224zM385 721h463q-10 79 -70.5 146t-154.5 67q-98 0 -163 -66.5t-75 -146.5z" />
<glyph unicode="&#xeb;" horiz-adv-x="1222" d="M72 606q0 92 21 177t65 160.5t107 131.5t154 88.5t199 32.5q138 0 244.5 -53.5t170.5 -147.5t94 -216t24 -263l-2 -31h-768q4 -64 31 -111t69 -72.5t88 -37.5t97 -12q63 0 129.5 30t101.5 68l207 -188q-162 -195 -408 -195q-297 0 -460.5 170.5t-163.5 468.5zM254 1450 q0 62 43 104.5t104 42.5q62 0 105 -43t43 -104t-43 -104t-105 -43q-61 0 -104 42.5t-43 104.5zM385 721h463q-10 79 -70.5 146t-154.5 67q-98 0 -163 -66.5t-75 -146.5zM678 1450q0 62 43 104.5t104 42.5q62 0 105 -43t43 -104t-43 -104t-105 -43q-61 0 -104 42.5t-43 104.5 z" />
<glyph unicode="&#xec;" horiz-adv-x="612" d="M-20 1626h325l221 -323h-202zM147 0v1163h318v-1163h-318z" />
<glyph unicode="&#xed;" horiz-adv-x="616" d="M86 1303l221 323h326l-346 -323h-201zM147 0v1163h318v-1163h-318z" />
<glyph unicode="&#xee;" horiz-adv-x="612" d="M-90 1305l260 323h272l260 -323h-225l-172 213l-172 -213h-223zM147 0v1163h318v-1163h-318z" />
<glyph unicode="&#xef;" horiz-adv-x="612" d="M-57 1450q0 62 42.5 104.5t104.5 42.5t105 -43t43 -104t-43 -104t-105 -43t-104.5 42.5t-42.5 104.5zM147 0v1163h318v-1163h-318zM367 1450q0 62 42.5 104.5t104.5 42.5t105 -43t43 -104t-43 -104t-105 -43t-104.5 42.5t-42.5 104.5z" />
<glyph unicode="&#xf0;" horiz-adv-x="1232" d="M102 563q0 83 23 171t68.5 168.5t106.5 141.5t144 92t174 19l-79 105h-308l-106 188h268l-110 149h331l101 -153h282l119 -180h-274q140 -195 192 -286q127 -222 127 -411q0 -90 -22 -176.5t-66.5 -162t-105.5 -132.5t-144.5 -90t-177.5 -33q-127 0 -230.5 45.5 t-171.5 125.5t-104.5 187.5t-36.5 231.5zM403 569q0 -132 67.5 -225.5t164.5 -93.5q95 0 163 93.5t68 225.5q0 131 -68 224.5t-163 93.5q-96 0 -164 -93.5t-68 -224.5z" />
<glyph unicode="&#xf1;" horiz-adv-x="1306" d="M123 0v1163h323v-73q45 47 123.5 76.5t145.5 29.5q228 0 348.5 -134.5t120.5 -367.5v-694h-324v723q0 77 -48.5 126.5t-125.5 49.5q-110 0 -176 -62.5t-66 -144.5v-692h-321zM262 1284q10 113 75 187.5t175 74.5q65 0 164 -44t147 -44q86 0 107 84h139 q-5 -121 -69 -189.5t-177 -68.5q-56 0 -159.5 45t-157.5 45q-40 0 -68 -24.5t-37 -65.5h-139z" />
<glyph unicode="&#xf2;" d="M72 584q0 175 64.5 312.5t194 219.5t304.5 82q165 0 294 -81.5t198 -220.5t69 -312q0 -174 -68.5 -314.5t-197.5 -222.5t-295 -82q-165 0 -294.5 82t-199 223t-69.5 314zM256 1626h324l221 -323h-201zM385 588q0 -140 71 -235t173 -95t173.5 95t71.5 235t-71.5 235 t-173.5 95t-173 -95t-71 -235z" />
<glyph unicode="&#xf3;" d="M72 584q0 175 64.5 312.5t194 219.5t304.5 82q165 0 294 -81.5t198 -220.5t69 -312q0 -174 -68.5 -314.5t-197.5 -222.5t-295 -82q-165 0 -294.5 82t-199 223t-69.5 314zM385 588q0 -140 71 -235t173 -95t173.5 95t71.5 235t-71.5 235t-173.5 95t-173 -95t-71 -235z M414 1303l221 323h326l-345 -323h-202z" />
<glyph unicode="&#xf4;" d="M72 584q0 175 64.5 312.5t194 219.5t304.5 82q165 0 294 -81.5t198 -220.5t69 -312q0 -174 -68.5 -314.5t-197.5 -222.5t-295 -82q-165 0 -294.5 82t-199 223t-69.5 314zM246 1303l260 323h272l260 -323h-223l-174 213l-172 -213h-223zM385 588q0 -140 71 -235t173 -95 t173.5 95t71.5 235t-71.5 235t-173.5 95t-173 -95t-71 -235z" />
<glyph unicode="&#xf5;" d="M72 584q0 175 64.5 312.5t194 219.5t304.5 82q165 0 294 -81.5t198 -220.5t69 -312q0 -174 -68.5 -314.5t-197.5 -222.5t-295 -82q-165 0 -294.5 82t-199 223t-69.5 314zM248 1286q54 266 264 266q51 0 146.5 -38.5t144.5 -38.5q83 0 102 86h142q-20 -110 -78.5 -185.5 t-159.5 -75.5q-56 0 -162.5 39t-157.5 39q-40 0 -67 -26t-35 -66h-139zM385 588q0 -140 71 -235t173 -95t173.5 95t71.5 235t-71.5 235t-173.5 95t-173 -95t-71 -235z" />
<glyph unicode="&#xf6;" d="M72 584q0 175 64.5 312.5t194 219.5t304.5 82q165 0 294 -81.5t198 -220.5t69 -312q0 -174 -68.5 -314.5t-197.5 -222.5t-295 -82q-165 0 -294.5 82t-199 223t-69.5 314zM266 1450q0 61 43 104t105 43t104.5 -42.5t42.5 -104.5t-42.5 -104.5t-104.5 -42.5t-105 43 t-43 104zM385 588q0 -140 71 -235t173 -95t173.5 95t71.5 235t-71.5 235t-173.5 95t-173 -95t-71 -235zM690 1450q0 61 43 104t105 43t104.5 -42.5t42.5 -104.5t-42.5 -104.5t-104.5 -42.5t-105 43t-43 104z" />
<glyph unicode="&#xf7;" horiz-adv-x="1259" d="M82 428v244h1096v-244h-1096zM438 100q0 79 57.5 136t135.5 57q77 0 134.5 -57.5t57.5 -135.5q0 -73 -58 -132.5t-132 -59.5q-79 0 -137 57t-58 135zM438 997q0 79 57.5 136t135.5 57q77 0 134.5 -57.5t57.5 -135.5q0 -73 -58 -131.5t-132 -58.5q-80 0 -137.5 56 t-57.5 134z" />
<glyph unicode="&#xf8;" d="M72 584q0 175 64.5 312.5t194 219.5t304.5 82q26 0 76 -4l45 156l172 -72l-39 -137q144 -73 225.5 -221t81.5 -336q0 -174 -68.5 -314.5t-197.5 -222.5t-295 -82q-43 0 -84 6l-45 -155l-176 61l45 152q-141 74 -222 221.5t-81 333.5zM385 588q0 -150 80 -246l166 576h-2 q-102 0 -173 -95t-71 -235zM633 258q101 2 171 97t70 233q0 147 -75 241z" />
<glyph unicode="&#xf9;" horiz-adv-x="1296" d="M113 451v712h321l2 -682q0 -111 50.5 -164t127.5 -53q98 0 167 64.5t69 142.5v692h324v-1163h-324v72q-45 -44 -125.5 -74.5t-144.5 -30.5q-224 0 -345.5 134.5t-121.5 349.5zM324 1626h323l221 -323h-200z" />
<glyph unicode="&#xfa;" horiz-adv-x="1296" d="M113 451v712h321l2 -682q0 -111 50.5 -164t127.5 -53q98 0 167 64.5t69 142.5v692h324v-1163h-324v72q-45 -44 -125.5 -74.5t-144.5 -30.5q-224 0 -345.5 134.5t-121.5 349.5zM420 1303l221 323h326l-344 -323h-203z" />
<glyph unicode="&#xfb;" horiz-adv-x="1296" d="M113 451v712h321l2 -682q0 -111 50.5 -164t127.5 -53q98 0 167 64.5t69 142.5v692h324v-1163h-324v72q-45 -44 -125.5 -74.5t-144.5 -30.5q-224 0 -345.5 134.5t-121.5 349.5zM252 1303l260 323h272l260 -323h-223l-174 213l-172 -213h-223z" />
<glyph unicode="&#xfc;" horiz-adv-x="1296" d="M113 451v712h321l2 -682q0 -111 50.5 -164t127.5 -53q98 0 167 64.5t69 142.5v692h324v-1163h-324v72q-45 -44 -125.5 -74.5t-144.5 -30.5q-224 0 -345.5 134.5t-121.5 349.5zM283 1450q0 62 42.5 104.5t104.5 42.5t105 -43t43 -104t-43 -104t-105 -43t-104.5 42.5 t-42.5 104.5zM707 1450q0 62 42.5 104.5t104.5 42.5t104.5 -42.5t42.5 -104.5t-42.5 -104.5t-104.5 -42.5t-104.5 42.5t-42.5 104.5z" />
<glyph unicode="&#xfd;" horiz-adv-x="1185" d="M20 1163h326l242 -694l252 694h325l-456 -1313q-23 -66 -44.5 -108.5t-55.5 -78.5t-81.5 -52.5t-113.5 -16.5q-77 0 -172 9t-144 22l39 285q104 -29 191 -29q75 0 94 43q22 47 -6 125zM401 1303l222 323h325l-346 -323h-201z" />
<glyph unicode="&#xfe;" horiz-adv-x="1374" d="M123 -362v1955h297v-518h4q146 123 350 123q150 0 272.5 -85t189.5 -225t67 -304q0 -163 -66.5 -302t-191.5 -224t-281 -85q-126 0 -205 35.5t-135 102.5h-4v-473h-297zM416 455q0 -89 81 -151t173 -62q71 0 122.5 27.5t79.5 76t41 105t13 124.5t-14 126.5t-43 108.5 t-82 79t-125 29q-94 0 -170 -61.5t-76 -154.5v-247z" />
<glyph unicode="&#xff;" horiz-adv-x="1185" d="M20 1163h326l242 -694l252 694h325l-456 -1313q-23 -66 -44.5 -108.5t-55.5 -78.5t-81.5 -52.5t-113.5 -16.5q-77 0 -172 9t-144 22l39 285q104 -29 191 -29q75 0 94 43q22 47 -6 125zM242 1450q0 61 43.5 104t103.5 43q62 0 105 -43t43 -104t-43 -104t-105 -43 q-60 0 -103.5 43t-43.5 104zM666 1450q0 61 43.5 104t103.5 43q62 0 105 -43t43 -104t-43 -104t-105 -43q-60 0 -103.5 43t-43.5 104z" />
<glyph unicode="&#x152;" horiz-adv-x="2154" d="M92 795q0 400 211 601t610 201h1098v-315h-715v-321h648v-295h-648v-351h777v-315l-1260 -2q-171 0 -309.5 62.5t-227.5 171.5t-136.5 253t-47.5 310zM432 793q0 -79 12 -147.5t40.5 -129.5t71.5 -104.5t109 -69t150 -25.5q86 0 120 20t34 77l-2 747q0 58 -34 84.5 t-118 26.5t-150.5 -25.5t-109.5 -69t-71 -105.5t-40 -130.5t-12 -148.5z" />
<glyph unicode="&#x153;" horiz-adv-x="2002" d="M72 584q0 175 64.5 312.5t194 219.5t304.5 82q229 0 381 -149q147 147 383 147q138 0 244.5 -53.5t170 -147.5t93.5 -216t24 -263l-2 -31h-768q10 -121 92.5 -177t192.5 -56q63 0 129.5 30t101.5 68l207 -188q-162 -195 -407 -195q-286 0 -449 160q-159 -162 -393 -162 q-165 0 -294.5 82t-199 223t-69.5 314zM385 588q0 -140 71 -235t173 -95t173.5 95t71.5 235t-71.5 235t-173.5 95t-173 -95t-71 -235zM1165 725h463q-5 35 -22 70.5t-45 67.5t-71.5 51.5t-94.5 19.5q-93 1 -157.5 -66t-72.5 -143z" />
<glyph unicode="&#x178;" horiz-adv-x="1480" d="M41 1597h379l321 -585l320 585h379l-533 -960v-637h-329v637zM385 1847q0 61 43.5 104.5t103.5 43.5q62 0 105 -43.5t43 -104.5t-43 -104t-105 -43q-60 0 -103.5 43t-43.5 104zM809 1847q0 61 43.5 104.5t103.5 43.5q62 0 105 -43.5t43 -104.5t-43 -104t-105 -43 q-60 0 -103.5 43t-43.5 104z" />
<glyph unicode="&#x2c6;" horiz-adv-x="1161" d="M176 1303l260 323h273l260 -323h-224l-174 213l-172 -213h-223z" />
<glyph unicode="&#x2dc;" horiz-adv-x="1370" d="M268 1284q10 113 75 187.5t175 74.5q65 0 164 -44t147 -44q86 0 107 84h139q-5 -121 -69 -189.5t-177 -68.5q-56 0 -159.5 45t-157.5 45q-41 0 -68.5 -25t-35.5 -65h-140z" />
<glyph unicode="&#x2000;" horiz-adv-x="1079" />
<glyph unicode="&#x2001;" horiz-adv-x="2159" />
<glyph unicode="&#x2002;" horiz-adv-x="1079" />
<glyph unicode="&#x2003;" horiz-adv-x="2159" />
<glyph unicode="&#x2004;" horiz-adv-x="719" />
<glyph unicode="&#x2005;" horiz-adv-x="539" />
<glyph unicode="&#x2006;" horiz-adv-x="359" />
<glyph unicode="&#x2007;" horiz-adv-x="359" />
<glyph unicode="&#x2008;" horiz-adv-x="269" />
<glyph unicode="&#x2009;" horiz-adv-x="431" />
<glyph unicode="&#x200a;" horiz-adv-x="119" />
<glyph unicode="&#x2010;" horiz-adv-x="681" d="M61 537v272h517v-272h-517z" />
<glyph unicode="&#x2011;" horiz-adv-x="681" d="M61 537v272h517v-272h-517z" />
<glyph unicode="&#x2012;" horiz-adv-x="681" d="M61 537v272h517v-272h-517z" />
<glyph unicode="&#x2013;" horiz-adv-x="1165" d="M61 537v274h1045v-274h-1045z" />
<glyph unicode="&#x2014;" horiz-adv-x="1546" d="M61 537v276h1426v-276h-1426z" />
<glyph unicode="&#x2018;" horiz-adv-x="593" d="M143 1290q0 290 310 357v-111q-49 -7 -100.5 -51.5t-59.5 -108.5q18 4 45 4q62 0 108 -50.5t46 -112.5q0 -68 -48 -117t-116 -49q-88 0 -136.5 68.5t-48.5 170.5z" />
<glyph unicode="&#x2019;" horiz-adv-x="593" d="M143 1460q0 68 48 117t116 49q88 0 136.5 -69t48.5 -171q0 -289 -310 -356v111q49 7 100.5 51t59.5 108q-18 -4 -45 -4q-62 0 -108 51t-46 113z" />
<glyph unicode="&#x201a;" horiz-adv-x="614" d="M143 170q0 68 48 117t116 49q88 0 136.5 -69t48.5 -171q0 -289 -310 -356v110q49 7 100.5 51.5t59.5 108.5q-18 -4 -45 -4q-62 0 -108 51t-46 113z" />
<glyph unicode="&#x201c;" horiz-adv-x="1085" d="M143 1290q0 290 310 357v-111q-49 -7 -100.5 -51.5t-59.5 -108.5q18 4 45 4q62 0 108 -50.5t46 -112.5q0 -68 -48 -117t-116 -49q-88 0 -136.5 68.5t-48.5 170.5zM635 1290q0 290 309 357v-111q-49 -7 -100.5 -51.5t-59.5 -108.5q18 4 45 4q62 0 108 -50.5t46 -112.5 q0 -68 -48 -117t-116 -49q-88 0 -136 68t-48 171z" />
<glyph unicode="&#x201d;" horiz-adv-x="1064" d="M123 1460q0 68 48 117t116 49q88 0 136 -68.5t48 -171.5q0 -289 -309 -356v111q49 7 100.5 51t59.5 108q-18 -4 -46 -4q-61 0 -107 51t-46 113zM614 1460q0 68 48 117t116 49q88 0 136.5 -69t48.5 -171q0 -289 -310 -356v111q49 7 100.5 51t59.5 108q-18 -4 -45 -4 q-62 0 -108 51t-46 113z" />
<glyph unicode="&#x201e;" horiz-adv-x="1085" d="M143 170q0 68 48 117t116 49q88 0 136.5 -69t48.5 -171q0 -289 -310 -356v110q49 7 100.5 51.5t59.5 108.5q-18 -4 -45 -4q-62 0 -108 51t-46 113zM635 170q0 68 48 117t116 49q88 0 136 -68.5t48 -171.5q0 -289 -309 -356v110q49 7 100.5 51.5t59.5 108.5q-18 -4 -46 -4 q-61 0 -107 51t-46 113z" />
<glyph unicode="&#x2022;" horiz-adv-x="802" d="M102 733q0 125 87 212t212 87t212 -87t87 -212t-87 -212t-212 -87t-212 87t-87 212z" />
<glyph unicode="&#x2026;" horiz-adv-x="1466" d="M106 127q0 67 48 115.5t116 48.5t116 -48.5t48 -115.5t-48 -115.5t-116 -48.5t-116 48.5t-48 115.5zM578 127q0 68 48 116t115 48t115.5 -48.5t48.5 -115.5t-48.5 -115.5t-115.5 -48.5t-115 48t-48 116zM1049 127q0 68 48 116t115 48q68 0 116 -48.5t48 -115.5 t-48 -115.5t-116 -48.5q-67 0 -115 48t-48 116z" />
<glyph unicode="&#x202f;" horiz-adv-x="431" />
<glyph unicode="&#x2039;" horiz-adv-x="2699" d="M41 788l651 656h658l-432 -434h1740v-437h-1740l434 -436h-660z" />
<glyph unicode="&#x203a;" horiz-adv-x="2699" d="M41 573v437h1741l-432 434h657l651 -656l-651 -651h-661l436 436h-1741z" />
<glyph unicode="&#x205f;" horiz-adv-x="539" />
<glyph unicode="&#x20ac;" horiz-adv-x="1781" d="M41 545l22 166h101q-4 50 -4 75q0 12 1 33t1 33h-80l22 166h82q30 131 93.5 241.5t153.5 192.5t211.5 128t260.5 46q277 1 454.5 -125t268.5 -373l-342 -100q-16 50 -34.5 88.5t-49.5 77t-70 63t-96.5 40t-128.5 14.5q-128 -2 -222 -77.5t-136 -215.5h405l-20 -166h-412 q0 -7 -1 -22.5t-1 -22.5q0 -34 4 -96h391l-22 -166h-334q44 -129 138 -197.5t225 -68.5q137 -1 233 75.5t131 198.5l342 -86q-181 -504 -706 -504q-278 0 -471.5 161t-260.5 421h-149z" />
<glyph unicode="&#x2122;" horiz-adv-x="1667" d="M61 1440v157h615v-157h-225v-641h-164v641h-226zM760 799v798h209l190 -278l193 278h213v-798h-166v571l-240 -346l-237 348v-573h-162z" />
<glyph unicode="&#xe000;" horiz-adv-x="1167" d="M0 0v1167h1167v-1167h-1167z" />
<glyph unicode="&#xfb01;" d="M133 784l391 813h217l392 -813h-240l-260 572l-262 -572h-238z" />
</font>
</defs>
</svg>
