<!-- Generator: Adobe Illustrator 19.0.1, SVG Export Plug-In  -->
<svg version="1.1"
	 xmlns="http://www.w3.org/2000/svg" xmlns:xlink="http://www.w3.org/1999/xlink" xmlns:a="http://ns.adobe.com/AdobeSVGViewerExtensions/3.0/"
	 x="0px" y="0px" width="24px" height="24px" viewBox="0 0 24 24" enable-background="new 0 0 24 24" xml:space="preserve">
<defs>
</defs>
<path fill="#D1D5D5" d="M0,0v24h24V0H0z M18.9,8.9c0,4.7-3.6,10.1-10.1,10.1c-2,0-3.9-0.6-5.4-1.6c0.3,0,0.6,0,0.8,0
	c1.7,0,3.2-0.6,4.4-1.5c-1.5,0-2.9-1.1-3.3-2.5c0.2,0,0.4,0.1,0.7,0.1c0.3,0,0.6,0,0.9-0.1c-1.6-0.3-2.8-1.8-2.8-3.5c0,0,0,0,0,0
	c0.5,0.3,1,0.4,1.6,0.4C4.7,9.7,4.1,8.6,4.1,7.4c0-0.6,0.2-1.3,0.5-1.8c1.7,2.1,4.4,3.6,7.3,3.7c-0.1-0.3-0.1-0.5-0.1-0.8
	c0-2,1.6-3.5,3.5-3.5c1,0,1.9,0.4,2.6,1.1c0.8-0.2,1.6-0.5,2.2-0.9c-0.3,0.8-0.8,1.5-1.6,2c0.7-0.1,1.4-0.3,2-0.6
	c-0.5,0.7-1.1,1.3-1.8,1.8C18.9,8.6,18.9,8.8,18.9,8.9z"/>
</svg>
