<!-- Generator: Adobe Illustrator 19.0.1, SVG Export Plug-In  -->
<svg version="1.1"
	 xmlns="http://www.w3.org/2000/svg" xmlns:xlink="http://www.w3.org/1999/xlink" xmlns:a="http://ns.adobe.com/AdobeSVGViewerExtensions/3.0/"
	 x="0px" y="0px" width="24px" height="24px" viewBox="0 0 24 24" enable-background="new 0 0 24 24" xml:space="preserve">
<defs>
</defs>
<g>
	<g>
		<path fill-rule="evenodd" clip-rule="evenodd" fill="#D1D5D5" d="M24,0c0,8,0,16,0,24c-8,0-16,0-24,0C0,16,0,8,0,0.1
			C0,0,0,0,0.1,0C8,0,16,0,24,0z M3.4,3.9C3.3,4.2,3.1,4.4,3,4.9C2.9,6.4,4,7.5,5.5,7.4c1-0.1,1.9-1,1.9-2.2c0-1.3-1.1-2.3-2.5-2.1
			C4.2,3.2,3.8,3.5,3.4,3.9z M21,14.9c0-2-0.1-3.8-1.1-5c-0.7-0.9-2-1.3-3.7-1.2c-1.5,0.1-2.5,0.9-3.2,1.9c0-0.5,0-1.1,0-1.6
			c-1.2,0-2.4,0-3.6,0c0,4,0,8,0,12c1.2,0,2.5,0,3.7,0c0-1.2,0-2.7,0-4.1c0-1.8-0.1-3.6,0.7-4.4c0.5-0.5,1.8-0.7,2.6-0.2
			c1.1,0.7,0.9,2.7,0.9,4.5c0,1.5,0,2.9,0,4.2c1.2,0,2.5,0,3.7,0C21,19,21,16.9,21,14.9z M3.3,9.1c0,4,0,8,0,11.9c1.2,0,2.5,0,3.7,0
			C7.1,17,7,13,7.1,9C5.9,9,4.6,9,3.3,9.1C3.3,9,3.3,9.1,3.3,9.1z"/>
	</g>
</g>
</svg>
